<svg width="100%" viewBox="0 0 300 81" fill="none"
  xmlns="http://www.w3.org/2000/svg">
  <path d="M11.555 2.71392C1.115 8.00192 -0.13098 20.7439 0.0100198 32.1949C0.0860198 38.4269 0.62902 44.631 1.02302 50.844C1.38002 56.471 1.35501 62.1519 3.97901 67.1849C8.35701 75.5849 17.928 77.801 25.957 78.542C38.283 79.679 50.666 78.2099 63.015 78.9739C79.604 80.0009 96.015 81.227 112.649 80.792C129.283 80.357 145.882 80.181 162.525 80.168C179.168 80.155 195.804 80.088 212.439 79.668C228.093 79.274 244.48 79.9899 259.567 74.7129C266.406 72.3219 271.705 68.669 274.751 62.535C275.298 55.763 275.619 48.971 275.665 42.169C275.724 33.32 275.896 23.7689 274.057 15.1109C273.047 10.3529 271.125 6.25304 267.442 3.65704C267.151 3.45704 266.848 3.27504 266.55 3.08404C257.15 -1.44796 245.811 0.457913 235.9 0.755913C223.068 1.14258 210.235 1.45189 197.4 1.68389C171.278 2.15589 145.154 2.30919 119.027 2.14385C93.1277 1.97985 67.232 1.50201 41.34 0.710014C34.8114 0.510014 28.283 0.290168 21.755 0.0508346C19.0829 -0.111893 16.401 0.0113251 13.755 0.418022C13.3296 1.42829 12.5462 2.24582 11.555 2.71392V2.71392Z" fill="#EB3768"/>
</svg>
