<svg width="38" height="38" viewBox="0 0 38 38" fill="none"
  xmlns="http://www.w3.org/2000/svg">
  <path d="M20.806 15.025H25.2611V19.763H20.738V31.212H16.161V19.822H12.4391V15.052H16.1171C16.1171 14.152 16.1051 13.383 16.1171 12.609C16.0796 11.7922 16.2136 10.9766 16.5105 10.2148C16.8073 9.45292 17.2604 8.76167 17.8406 8.18553C18.4208 7.6094 19.1152 7.16115 19.8792 6.86964C20.6431 6.57814 21.4595 6.44983 22.276 6.493H25.26V11.142C24.244 11.142 23.2191 11.142 22.1941 11.142C21.1941 11.142 20.8331 11.452 20.7531 12.442C20.7001 13.103 20.7251 13.77 20.7261 14.434C20.741 14.6324 20.7677 14.8298 20.806 15.025V15.025Z" fill="currentColor"/>
  <path d="M18.853 37.706C15.1243 37.706 11.4793 36.6003 8.37901 34.5288C5.27867 32.4572 2.86225 29.5128 1.43528 26.068C0.00831449 22.6231 -0.365203 18.8324 0.362163 15.1753C1.08953 11.5182 2.88505 8.15896 5.52159 5.52228C8.15813 2.8856 11.5174 1.08995 15.1744 0.362386C18.8315 -0.365174 22.6222 0.00803387 26.0671 1.43482C29.5121 2.86161 32.4566 5.27789 34.5283 8.37811C36.6 11.4783 37.7058 15.1233 37.706 18.852C37.7005 23.8505 35.7125 28.6427 32.1781 32.1773C28.6437 35.7119 23.8515 37.7002 18.853 37.706ZM18.853 1.38801C15.399 1.38821 12.0227 2.41262 9.15086 4.33171C6.27905 6.2508 4.04075 8.97837 2.7191 12.1695C1.39744 15.3607 1.05172 18.8721 1.72569 22.2597C2.39965 25.6473 4.06305 28.759 6.50547 31.2013C8.9479 33.6436 12.0597 35.3067 15.4474 35.9805C18.835 36.6543 22.3464 36.3084 25.5375 34.9865C28.7285 33.6647 31.4559 31.4263 33.3749 28.5544C35.2938 25.6825 36.3181 22.306 36.3181 18.852C36.3128 14.2217 34.471 9.7826 31.1968 6.50859C27.9226 3.23457 23.4833 1.39304 18.853 1.38801V1.38801Z" fill="currentColor"/>
</svg>
