<svg width="38" height="38" viewBox="0 0 38 38" fill="none"
  xmlns="http://www.w3.org/2000/svg">
  <path d="M8.54206 18.774C8.54206 16.844 8.53106 14.913 8.54206 12.983C8.49797 12.2903 8.60246 11.5963 8.8487 10.9474C9.09495 10.2985 9.47716 9.70979 9.96968 9.22079C10.4622 8.73178 11.0537 8.35378 11.7043 8.11218C12.3549 7.87058 13.0497 7.77095 13.742 7.81999C17.352 7.81599 20.9623 7.81599 24.5729 7.81999C25.2523 7.78121 25.9323 7.88502 26.5692 8.12474C27.206 8.36446 27.7856 8.7348 28.2707 9.21194C28.7558 9.68907 29.1358 10.2625 29.3861 10.8952C29.6363 11.528 29.7514 12.2061 29.7239 12.886C29.7619 16.8513 29.7619 20.818 29.7239 24.786C29.7525 25.4663 29.6392 26.145 29.3908 26.779C29.1425 27.413 28.7646 27.9883 28.2816 28.4681C27.7985 28.948 27.2208 29.3219 26.5852 29.566C25.9495 29.8101 25.2701 29.9191 24.59 29.886C20.954 29.898 17.318 29.898 13.682 29.886C12.9955 29.9226 12.309 29.8139 11.6674 29.5672C11.0258 29.3204 10.4436 28.941 9.95857 28.4538C9.47356 27.9667 9.09677 27.3826 8.85285 26.7399C8.60894 26.0972 8.50338 25.4103 8.54304 24.724C8.52904 22.738 8.54206 20.755 8.54206 18.774ZM10.642 18.802C10.642 20.758 10.634 22.714 10.642 24.67C10.6067 25.069 10.6583 25.4709 10.7935 25.8479C10.9287 26.2249 11.1442 26.5681 11.425 26.8537C11.7058 27.1394 12.0452 27.3607 12.4199 27.5023C12.7945 27.6439 13.1955 27.7025 13.595 27.674C17.2824 27.688 20.9693 27.688 24.656 27.674C25.0552 27.7037 25.4562 27.6461 25.8309 27.5051C26.2056 27.3641 26.545 27.1431 26.8256 26.8576C27.1062 26.572 27.3212 26.2287 27.4556 25.8516C27.5901 25.4745 27.6407 25.0727 27.604 24.674C27.6133 20.788 27.6133 16.902 27.604 13.016C27.6415 12.6112 27.5888 12.2032 27.4497 11.8213C27.3106 11.4393 27.0885 11.093 26.7995 10.8071C26.5105 10.5213 26.1618 10.3031 25.7784 10.1682C25.3949 10.0333 24.9863 9.98506 24.582 10.027C20.9466 10.027 17.3116 10.027 13.677 10.027C13.2659 9.98552 12.8508 10.0365 12.462 10.1763C12.0732 10.316 11.7206 10.541 11.43 10.8346C11.1394 11.1283 10.9182 11.4833 10.7825 11.8735C10.6469 12.2637 10.6002 12.6794 10.6459 13.09C10.6409 14.993 10.645 16.897 10.645 18.8L10.642 18.802Z" fill="currentColor"/>
  <path d="M19.1061 24.608C17.969 24.6474 16.8462 24.3464 15.8814 23.7434C14.9166 23.1404 14.1537 22.263 13.6909 21.2236C13.2281 20.1843 13.0862 19.0304 13.2836 17.9099C13.4809 16.7894 14.0084 15.7534 14.7985 14.9347C15.5885 14.116 16.605 13.5519 17.7178 13.3148C18.8305 13.0777 19.9888 13.1784 21.044 13.6039C22.0991 14.0294 23.0032 14.7604 23.6401 15.7031C24.2771 16.6458 24.6179 17.7573 24.619 18.895C24.6333 19.6324 24.502 20.3654 24.2324 21.0519C23.9629 21.7385 23.5606 22.3651 23.0485 22.8958C22.5363 23.4266 21.9244 23.851 21.2479 24.1448C20.5714 24.4386 19.8435 24.596 19.1061 24.608ZM22.4871 18.913C22.4618 18.2546 22.2434 17.6182 21.8593 17.0829C21.4751 16.5476 20.9421 16.1371 20.3264 15.9024C19.7108 15.6677 19.0397 15.6192 18.3967 15.7629C17.7537 15.9066 17.1673 16.2361 16.7101 16.7106C16.2529 17.185 15.9453 17.7834 15.8256 18.4313C15.7058 19.0791 15.7791 19.7479 16.0365 20.3545C16.2939 20.961 16.7238 21.4785 17.273 21.8425C17.8221 22.2066 18.4661 22.4011 19.125 22.402C20.031 22.3789 20.8915 21.9998 21.5199 21.3467C22.1483 20.6936 22.4939 19.8192 22.4821 18.913H22.4871Z" fill="currentColor"/>
  <path d="M24.862 11.796C25.2408 11.8245 25.5933 12.0003 25.8438 12.2858C26.0944 12.5714 26.2229 12.9437 26.202 13.323C26.1884 13.7021 26.0252 14.0605 25.748 14.3195C25.4708 14.5785 25.1022 14.7171 24.723 14.705C24.354 14.6642 24.0146 14.4843 23.7736 14.2019C23.5327 13.9196 23.4084 13.556 23.4261 13.1852C23.4438 12.8144 23.6022 12.4643 23.869 12.2062C24.1358 11.9481 24.4909 11.8014 24.862 11.796V11.796Z" fill="currentColor"/>
  <path d="M19.145 37.706C15.4163 37.706 11.7714 36.6003 8.67103 34.5288C5.57069 32.4572 3.15427 29.5128 1.72731 26.068C0.300338 22.6231 -0.0730576 18.8324 0.654309 15.1753C1.38167 11.5182 3.17707 8.15896 5.81361 5.52228C8.45015 2.8856 11.8094 1.08995 15.4664 0.362386C19.1235 -0.365174 22.9142 0.00803387 26.3591 1.43482C29.8041 2.86161 32.7486 5.27789 34.8203 8.37811C36.892 11.4783 37.9979 15.1233 37.9981 18.852C37.9922 23.8504 36.0041 28.6425 32.4697 32.177C28.9354 35.7115 24.1435 37.6999 19.145 37.706V37.706ZM19.145 1.38801C15.6909 1.38742 12.3141 2.41116 9.44178 4.32977C6.56945 6.24837 4.33058 8.97567 3.00831 12.1667C1.68604 15.3578 1.3398 18.8693 2.01332 22.2572C2.68683 25.6451 4.34986 28.7572 6.79213 31.1999C9.23439 33.6425 12.3461 35.3061 15.7339 35.9802C19.1217 36.6543 22.6333 36.3086 25.8246 34.9869C29.0159 33.6652 31.7435 31.4268 33.6626 28.5548C35.5817 25.6828 36.6061 22.3062 36.6061 18.852C36.6008 14.2224 34.7596 9.7839 31.4862 6.51C28.2129 3.2361 23.7746 1.3941 19.145 1.38801V1.38801Z" fill="currentColor"/>
</svg>
