<svg width="39" height="38" viewBox="0 0 39 38" fill="none"
  xmlns="http://www.w3.org/2000/svg">
  <path d="M13.268 8.647C13.6907 8.75005 14.0837 8.94983 14.416 9.2306C14.7483 9.51138 15.0109 9.86547 15.1831 10.265C15.3086 10.5738 15.3713 10.9046 15.3674 11.238C15.3635 11.5713 15.2932 11.9006 15.1605 12.2064C15.0278 12.5122 14.8354 12.7885 14.5946 13.019C14.3537 13.2496 14.0693 13.4297 13.758 13.549C13.4636 13.6547 13.1506 13.6995 12.8383 13.6807C12.526 13.6619 12.2209 13.5799 11.9412 13.4397C11.6616 13.2994 11.4132 13.1039 11.2114 12.8648C11.0095 12.6258 10.8584 12.3482 10.767 12.049C10.5432 11.4139 10.5788 10.7161 10.8662 10.1071C11.1535 9.49814 11.6694 9.02702 12.302 8.79601L12.769 8.64301L13.268 8.647Z" fill="currentColor"/>
  <path d="M16.821 15.185H20.594L20.7101 15.75C20.8161 15.719 20.91 15.697 21.01 15.663C21.7385 15.3583 22.5268 15.2232 23.3152 15.2681C24.1036 15.3129 24.8713 15.5365 25.5605 15.9218C26.2498 16.3072 26.8424 16.8443 27.2935 17.4924C27.7445 18.1406 28.0422 18.8828 28.1641 19.663C28.2195 19.9493 28.2466 20.2404 28.245 20.532C28.2517 23.222 28.2533 25.912 28.25 28.602C28.25 28.743 28.231 28.884 28.219 29.053H24.4611V28.353C24.4611 25.913 24.4611 23.4733 24.4611 21.034C24.5063 20.7314 24.4671 20.4221 24.3478 20.1404C24.2284 19.8586 24.0335 19.6153 23.7847 19.4373C23.5358 19.2592 23.2426 19.1534 22.9374 19.1315C22.6322 19.1096 22.3268 19.1724 22.0551 19.313C21.7498 19.4417 21.4546 19.5932 21.172 19.766C20.9959 19.8526 20.851 19.9918 20.7573 20.1643C20.6636 20.3368 20.6258 20.5341 20.649 20.729C20.672 23.252 20.66 25.775 20.66 28.298V29.031H16.8251L16.821 15.185Z" fill="currentColor"/>
  <path d="M14.8511 29.058H11.0751V15.209H14.8511V29.058Z" fill="currentColor"/>
  <path d="M19.437 37.706C15.7083 37.706 12.0634 36.6003 8.96302 34.5288C5.86269 32.4572 3.44627 29.5128 2.0193 26.068C0.59233 22.6231 0.218935 18.8324 0.946301 15.1753C1.67367 11.5182 3.46906 8.15896 6.1056 5.52228C8.74214 2.8856 12.1014 1.08995 15.7584 0.362386C19.4155 -0.365174 23.2062 0.00803387 26.6511 1.43482C30.0961 2.86161 33.0406 5.27789 35.1123 8.37811C37.184 11.4783 38.2899 15.1233 38.2901 18.852C38.2842 23.8504 36.2961 28.6425 32.7617 32.177C29.2274 35.7115 24.4355 37.6999 19.437 37.706V37.706ZM19.437 1.38801C15.983 1.38801 12.6066 2.41225 9.73463 4.33122C6.86269 6.25019 4.62419 8.9777 3.30238 12.1688C1.98057 15.36 1.63475 18.8714 2.30861 22.2591C2.98246 25.6468 4.64576 28.7585 7.08815 31.2009C9.53053 33.6433 12.6424 35.3066 16.03 35.9804C19.4177 36.6543 22.9291 36.3084 26.1203 34.9866C29.3114 33.6648 32.0389 31.4264 33.9579 28.5545C35.8769 25.6825 36.901 22.3061 36.901 18.852C36.8957 14.2219 35.0542 9.78293 31.7802 6.50894C28.5062 3.23495 24.0671 1.3933 19.437 1.38801V1.38801Z" fill="currentColor"/>
</svg>
