<svg width="206" height="48" viewBox="0 0 206 48" fill="none"
  xmlns="http://www.w3.org/2000/svg">
  <path d="M130.164 29.2503C130.428 28.6043 129.752 27.9163 129.024 27.9063C126.887 27.0223 124.158 27.7063 121.89 27.7683C118.936 27.8443 117.128 27.4083 115.063 25.7283C115.021 25.6213 114.976 25.5153 114.936 25.4003C114.642 24.4941 114.49 23.548 114.485 22.5953C114.634 21.0477 114.686 19.4924 114.641 17.9383C114.557 16.0383 114.612 11.4293 117.469 11.1993C118.315 11.1812 119.161 11.2692 119.985 11.4613C119.768 14.3703 119.518 17.2913 119.176 20.1863C119.176 20.3985 119.232 20.607 119.337 20.7913C119.442 20.9756 119.593 21.1293 119.776 21.2373C122.75 23.3423 124.315 22.0183 127.72 21.9243C127.997 21.916 128.268 21.8364 128.506 21.6933C128.655 21.7237 128.808 21.7226 128.957 21.6901C129.105 21.6576 129.245 21.5943 129.367 21.5045C129.49 21.4146 129.592 21.3001 129.668 21.1683C129.743 21.0365 129.79 20.8904 129.806 20.7393C130.137 18.1351 130.195 15.5034 129.977 12.8873C130.277 11.1243 131.009 9.0423 130.535 7.3133C130.068 5.6133 128.135 4.05131 126.494 2.59631C125.919 1.99031 125.331 1.3963 124.71 0.808303C124.554 0.647548 124.362 0.526164 124.15 0.454177C123.938 0.382191 123.712 0.36167 123.491 0.394306C123.323 0.325072 123.145 0.282231 122.964 0.267303C120.861 0.15166 118.753 0.227641 116.664 0.494304C114.995 0.650304 112.528 0.656304 111.064 1.5093C109.922 2.1803 108.873 3.9713 107.85 4.9273C106.869 5.79166 106.091 6.86265 105.573 8.0633C105.547 8.1354 105.536 8.21181 105.539 8.2883C105.446 8.39153 105.382 8.51742 105.353 8.65331C105.34 8.72331 105.325 8.7953 105.311 8.8653C105.27 9.06145 105.297 9.2656 105.388 9.44431C105.495 10.3033 105.572 11.1843 105.622 12.0783C106.003 12.1812 106.375 12.315 106.734 12.4783C106.317 13.0313 105.985 13.4783 105.692 13.8653C105.758 16.6703 105.634 19.5573 105.53 22.2863C105.496 22.3428 105.468 22.4028 105.447 22.4653C104.676 25.8453 104.44 29.3252 104.747 32.7783C104.822 32.8473 104.905 32.9223 104.992 32.9943L104.776 33.1203C104.818 33.5593 104.865 34.0003 104.922 34.4383C105.222 36.7723 105.245 41.0063 106.977 42.8453C109.197 45.2023 113.148 46.2453 116.264 46.6273C118.193 46.8733 120.141 46.9476 122.083 46.8493C122.49 46.3043 122.931 45.7793 123.362 45.2493C123.533 45.6103 123.706 45.9733 124.011 46.6113C125.783 46.1783 127.391 45.1843 129.211 44.8613C129.408 44.8277 129.589 44.7328 129.729 44.59C129.869 44.4472 129.96 44.264 129.99 44.0663C130.161 43.9218 130.293 43.737 130.375 43.5286C130.457 43.3201 130.486 43.0946 130.459 42.8723C130.104 38.3193 131.139 33.7233 130.164 29.2503ZM129.193 9.7753C129.323 9.83682 129.446 9.91084 129.562 9.9963C129.401 10.056 129.236 10.1005 129.067 10.1293C129.037 10.1293 128.989 9.9343 128.951 9.8293C129.032 9.8063 129.127 9.7503 129.193 9.7723V9.7753ZM125.851 8.6913L125.903 8.8503L125.756 8.8303L125.851 8.6913ZM119.561 4.70031L119.461 4.8413L119.406 4.6773L119.561 4.70031ZM115.481 6.9003L115.622 7.07531L115.451 7.2163C115.403 7.1593 115.316 7.0963 115.322 7.0443C115.328 6.9923 115.425 6.9413 115.485 6.8933L115.481 6.9003ZM106.167 8.99231C106.11 8.92931 106.006 8.8623 106.009 8.8023C106.012 8.7423 106.122 8.6863 106.185 8.6293L106.356 8.81931L106.167 8.99231ZM105.652 29.7263L105.499 29.6263L105.672 29.5643L105.652 29.7263ZM112.585 14.4503L112.565 14.6503L112.386 14.5323L112.585 14.4503ZM109.417 5.31831C110.033 5.61831 110.417 5.8003 110.795 5.9843C110.121 6.36991 109.422 6.70936 108.703 7.0003C108.491 7.0753 108.12 6.70031 107.82 6.52631L109.417 5.31831ZM107.89 36.7443L107.746 36.5683C107.806 36.5223 107.87 36.4353 107.926 36.4413C107.982 36.4473 108.026 36.5413 108.071 36.6053C108.012 36.6503 107.952 36.6973 107.892 36.7443H107.89ZM108.88 30.9163C108.712 30.8735 108.549 30.8145 108.393 30.7403C108.455 30.6713 108.532 30.5353 108.579 30.5403C108.755 30.5878 108.927 30.6504 109.092 30.7273C109.018 30.8003 108.937 30.9253 108.885 30.9163H108.88ZM109.612 37.8623L109.556 37.6923L109.708 37.7123L109.612 37.8623ZM109.659 14.5623C109.535 14.3939 109.442 14.2055 109.382 14.0053C109.367 13.8973 109.563 13.7613 109.664 13.6373C109.736 13.7923 109.806 13.9513 109.875 14.1003L109.659 14.5623ZM110.125 24.4833C110.291 24.1938 110.502 23.9328 110.751 23.7103C110.861 23.9103 110.973 24.1103 111.399 24.8943C111.136 24.9971 110.855 25.0481 110.573 25.0443C110.385 25.0183 110.085 24.6073 110.127 24.4863L110.125 24.4833ZM111.389 30.8833C111.019 30.8323 110.647 30.7833 110.281 30.7253L110.23 30.7503L110.265 30.7223C110.272 30.7163 110.23 30.7503 110.235 30.7443C110.313 30.2723 110.385 29.8053 110.457 29.3383L110.549 29.2383L110.478 29.3383L110.457 29.3443L110.478 29.3383C110.406 29.8033 110.333 30.2693 110.265 30.7283H110.281L111.432 30.1603C111.418 30.399 111.404 30.6393 111.391 30.8813L111.389 30.8833ZM112.504 41.8353L112.52 41.6593L112.691 41.7593L112.504 41.8353ZM112.533 19.3683C112.466 19.3123 112.333 19.2453 112.343 19.2023C112.384 19.0379 112.437 18.8771 112.504 18.7213C112.604 18.8293 112.768 18.9303 112.766 19.0263C112.765 19.1413 112.618 19.2503 112.535 19.3663L112.533 19.3683ZM115.254 43.0803L114.019 41.4503L114.419 41.1503C114.819 41.6983 115.219 42.2433 115.603 42.8043C115.607 42.8133 115.377 42.9833 115.256 43.0783L115.254 43.0803ZM115.796 31.6493C115.642 31.6493 115.483 31.4943 115.325 31.4083C115.476 31.3163 115.625 31.1543 115.781 31.1493C115.937 31.1443 116.098 31.2983 116.256 31.3823C116.106 31.4753 115.955 31.6413 115.798 31.6503L115.796 31.6493ZM118.326 39.5413C118.266 39.4833 118.148 39.4143 118.156 39.3683C118.197 39.2112 118.251 39.0576 118.317 38.9093C118.407 39.0093 118.56 39.1173 118.554 39.2093C118.549 39.3223 118.411 39.4293 118.328 39.5393L118.326 39.5413ZM119.521 44.2223C119.451 44.0848 119.395 43.9407 119.354 43.7923C119.346 43.7443 119.464 43.6723 119.527 43.6113C119.6 43.7549 119.66 43.9044 119.707 44.0583C119.72 44.0933 119.585 44.1653 119.523 44.2203L119.521 44.2223ZM125.321 43.4223H125.128L124.184 43.4693L124.192 43.4603C124.221 43.3313 124.244 43.2093 124.267 43.0863L124.221 43.4173C124.216 43.4252 124.211 43.4329 124.206 43.4403L124.221 43.4193C124.524 43.4193 124.827 43.4193 125.128 43.4193C125.192 43.4143 125.255 43.4113 125.319 43.4083C125.213 42.9433 125.105 42.4763 124.996 42.0083C124.608 41.6573 124.223 41.3083 123.834 40.9623L123.861 40.9343C123.846 40.9483 123.834 40.9623 123.834 40.9623C123.814 40.9053 123.795 40.8483 123.772 40.7953L123.618 40.6713C123.662 40.6923 123.725 40.7033 123.746 40.7403C123.757 40.7574 123.766 40.7759 123.772 40.7953L123.899 40.8953L125.063 41.9373L124.996 42.0063L125.063 41.9383C125.154 42.4273 125.244 42.9143 125.337 43.4023L125.321 43.4223ZM126.677 43.2763L126.732 43.2243L126.677 43.2763C126.662 43.2473 126.647 43.2203 126.633 43.1913C126.593 43.18 126.556 43.161 126.523 43.1353C126.495 43.1113 126.518 43.0273 126.523 42.9723L126.636 43.1913C126.67 43.2033 126.703 43.2123 126.736 43.2243L126.871 43.2823C126.801 43.2803 126.738 43.2773 126.675 43.2753L126.677 43.2763Z" fill="currentColor"/>
  <path d="M145.576 1.50629C143.161 0.183293 139.584 0.73629 136.714 0.74029C136.265 0.626704 135.793 0.631182 135.346 0.75329C135.204 0.788989 135.07 0.853574 134.954 0.94303C134.838 1.03249 134.741 1.1449 134.67 1.27329C134.434 1.27329 134.202 1.26329 133.97 1.28129C133.787 1.29297 133.611 1.35403 133.461 1.45795C133.31 1.56186 133.191 1.70473 133.115 1.87129C132.823 1.99647 132.568 2.19274 132.371 2.44219C132.175 2.69164 132.044 2.98632 131.991 3.29929C131.491 5.47429 132.563 7.73429 132.8 9.87929C132.8 9.90829 132.812 9.92829 132.814 9.95629C132.749 10.2291 132.754 10.5142 132.831 10.7841C132.907 11.054 133.052 11.2998 133.251 11.4977C133.449 11.6957 133.696 11.8391 133.966 11.9144C134.236 11.9896 134.522 11.994 134.794 11.9273C136.849 11.6173 138.394 12.2773 140.409 12.3723C142.329 12.4456 144.246 12.1718 146.069 11.5643C146.395 11.4754 146.682 11.2817 146.887 11.0131C147.092 10.7445 147.203 10.416 147.202 10.0783C146.96 8.06929 146.909 6.04929 146.75 4.03629C146.774 3.55104 146.679 3.06726 146.475 2.62656C146.27 2.18586 145.962 1.80142 145.576 1.50629V1.50629ZM145.109 4.49829L144.464 4.12029C144.614 4.02029 144.777 3.82029 144.913 3.84029C145.164 3.90611 145.405 4.00711 145.628 4.14029L145.109 4.49829Z" fill="currentColor"/>
  <path d="M146.296 17.4353C146.504 17.2862 146.668 17.0847 146.772 16.8513C146.883 16.6482 146.933 16.4171 146.915 16.1862C146.897 15.9553 146.813 15.7346 146.672 15.5509C146.53 15.3672 146.339 15.2285 146.121 15.1517C145.902 15.0749 145.666 15.0633 145.441 15.1183C144.951 15.2053 144.464 15.2953 143.974 15.3923C143.803 15.4254 143.643 15.5042 143.513 15.6203C142.013 15.6263 139.782 15.4013 138.895 15.3473C137.34 15.2221 135.775 15.3447 134.258 15.7103C134.177 15.5993 134.07 15.5094 133.947 15.4484C133.824 15.3874 133.688 15.357 133.55 15.3599C133.413 15.3627 133.278 15.3987 133.158 15.4648C133.037 15.5308 132.934 15.625 132.858 15.7393C131.958 17.1973 132.304 18.8743 132.546 20.4913C132.614 20.9207 132.705 21.3461 132.82 21.7653C132.707 25.3383 133.04 26.5903 133.132 30.1773C133.232 34.0063 132.8 37.8773 132.654 41.7043C132.396 48.6433 140.836 45.2313 145.113 46.2043C145.306 46.2516 145.506 46.2552 145.7 46.2147C145.894 46.1742 146.077 46.0908 146.234 45.9705C146.392 45.8502 146.52 45.6961 146.61 45.5195C146.701 45.343 146.75 45.1485 146.755 44.9503C147.018 42.8452 146.999 40.7145 146.7 38.6143C147.617 30.8243 147.201 25.1863 146.296 17.4353ZM133.105 19.6353L133.111 19.6413L133.105 19.6353L133.044 19.5803L132.764 19.3073L133.049 19.5783L133.168 19.5393C133.144 19.5692 133.123 19.601 133.105 19.6343V19.6353Z" fill="currentColor"/>
  <path d="M176.685 7.27931C176.899 5.44088 176.859 3.58184 176.566 1.75431C176.529 1.59285 176.454 1.44243 176.348 1.31516C176.242 1.18789 176.107 1.08735 175.955 1.02166C175.803 0.955966 175.638 0.926956 175.472 0.93697C175.307 0.946984 175.146 0.99574 175.003 1.07931C174.738 0.881803 174.421 0.764819 174.091 0.74231C170.554 0.46331 166.864 0.315308 163.291 0.203308C160.661 0.221863 158.037 0.483646 155.455 0.98531C155.227 0.95631 154.999 0.927307 154.769 0.900307C153.119 0.827695 151.467 1.00401 149.869 1.42331C149.733 1.2487 149.551 1.11527 149.343 1.03781C149.135 0.960341 148.91 0.941863 148.693 0.984421C148.475 1.02698 148.274 1.12891 148.111 1.27892C147.948 1.42893 147.83 1.62116 147.769 1.83431C147.299 4.08231 148.253 6.52131 148.275 8.78931C148.307 12.2083 148.122 15.4583 148.975 18.8023C149.031 18.9975 149.161 19.163 149.338 19.2632C149.514 19.3634 149.723 19.3904 149.919 19.3383C149.924 19.3399 149.93 19.3399 149.935 19.3383C150.051 19.4021 150.179 19.4384 150.311 19.4443C153.216 19.597 156.122 19.7206 159.031 19.8153C159.006 20.1553 159.003 20.5013 159.006 20.8503C158.893 23.6503 158.763 26.4573 158.712 29.2583C158.581 30.3908 158.521 31.5303 158.533 32.6703C158.536 32.909 158.599 33.1431 158.718 33.3503C158.845 37.3163 159.262 41.2763 159.038 45.2503C159.038 45.4052 159.068 45.5586 159.127 45.7017C159.186 45.8449 159.273 45.975 159.382 46.0845C159.492 46.1941 159.622 46.2809 159.765 46.3401C159.908 46.3992 160.061 46.4296 160.216 46.4293C160.346 46.4113 160.462 46.3963 160.573 46.3773C160.729 46.4927 160.914 46.5646 161.107 46.5857C161.3 46.6068 161.495 46.5763 161.673 46.4973C162.182 46.3373 162.673 46.1643 163.163 46.0223C163.739 46.1945 164.343 46.2514 164.941 46.1896C165.539 46.1278 166.119 45.9486 166.647 45.6623C166.807 45.5625 166.94 45.4266 167.038 45.2655C167.135 45.1044 167.193 44.9227 167.207 44.735C167.221 44.5473 167.191 44.359 167.119 44.1851C167.047 44.0113 166.935 43.8569 166.792 43.7343C166.823 43.5703 166.86 43.4163 166.878 43.2343C167.01 41.8443 166.742 40.3653 166.746 38.9653C166.753 37.0653 167.137 34.4953 166.416 32.6523C166.616 28.4123 166.938 24.1523 166.794 19.9303C169.575 19.8687 172.356 20.0359 175.11 20.4303C175.358 20.4944 175.621 20.4596 175.844 20.3333C176.066 20.2069 176.231 19.9989 176.303 19.7533C176.782 17.3127 176.999 14.828 176.951 12.3413C177.107 11.2278 177.172 10.1034 177.146 8.97931C177.095 8.64231 176.9 8.01131 176.685 7.27931ZM151.273 18.7563L151.205 18.5503L151.39 18.5753L151.273 18.7563ZM155.735 8.88731C155.353 8.99846 154.958 9.0593 154.56 9.06831L154.513 9.11131C154.456 9.04531 154.344 8.96731 154.354 8.91131C154.392 8.75224 154.445 8.59695 154.511 8.44731V8.44731L154.564 8.49031L155.675 7.99731C155.701 8.30731 155.82 8.85031 155.735 8.88731V8.88731ZM156.995 10.3363C156.745 10.1663 156.373 9.99731 156.395 9.90731C156.443 9.66831 156.686 9.26831 156.802 9.28431C157.067 9.32031 157.302 9.56831 157.551 9.73131L156.995 10.3363ZM162.795 14.4643L162.888 14.2733L162.968 14.4733L162.795 14.4643ZM172.428 10.7753C172.494 10.6513 172.563 10.5273 172.628 10.4043C172.577 10.5473 172.528 10.6883 172.479 10.8323L172.456 10.8093L172.479 10.8323C172.456 10.8503 172.432 10.8653 172.41 10.8823C172.405 10.9281 172.392 10.9727 172.372 11.0143C172.352 11.0463 172.254 11.0323 172.191 11.0403C172.265 10.9883 172.337 10.9343 172.41 10.8823C172.412 10.8463 172.416 10.8105 172.424 10.7753H172.428ZM172.502 12.4133C172.343 12.3611 172.189 12.2942 172.043 12.2133C172.108 12.1473 172.193 12.0133 172.235 12.0303C172.398 12.0888 172.556 12.1614 172.706 12.2473C172.633 12.3033 172.547 12.4273 172.498 12.4133H172.502ZM175.019 16.4223C174.977 16.3313 174.935 16.2393 174.894 16.1473C174.964 16.1763 175.036 16.2023 175.108 16.2313C175.075 16.2943 175.044 16.3583 175.015 16.4223H175.019ZM175.863 8.58731C175.705 8.55231 175.574 8.39431 175.431 8.28731C175.554 8.21231 175.675 8.13431 175.797 8.05831L176.208 8.34831C176.085 8.43531 175.951 8.60831 175.859 8.58731H175.863Z" fill="currentColor"/>
  <path d="M204.837 7.0103C204.988 5.19703 205.021 3.37589 204.937 1.5583C204.934 1.28706 204.825 1.0278 204.633 0.835898C204.441 0.643997 204.182 0.534678 203.911 0.531302C203.593 0.546302 203.274 0.567304 202.957 0.590304C202.823 0.521817 202.674 0.487463 202.524 0.490302C201.224 0.515302 199.958 0.354302 198.659 0.469302C198.513 0.479589 198.373 0.528875 198.252 0.61201C198.132 0.695144 198.036 0.809076 197.975 0.941908C197.913 1.07474 197.889 1.2216 197.904 1.36714C197.918 1.51269 197.972 1.65158 198.059 1.7693C197.696 3.58722 197.648 5.4541 197.917 7.2883C197.896 7.2303 197.986 7.1303 198.026 7.0493L198.398 7.2423C198.318 7.3833 198.237 7.5223 198.156 7.6613C198.062 7.54645 197.982 7.42131 197.917 7.2883C197.934 7.5423 197.948 7.7883 197.957 8.0403C198.057 10.9223 197.793 13.7993 197.79 16.6783L197.796 16.6913L197.915 16.7053C197.881 16.7161 197.847 16.7295 197.815 16.7453V16.7503L197.791 16.7243V16.9983C197.247 16.9873 196.691 16.9413 196.181 16.9143C195.494 16.8643 194.812 16.7624 194.14 16.6093C193.269 14.8853 193.597 12.1963 193.601 10.5493C193.675 7.74745 193.603 4.94364 193.385 2.1493C193.385 2.1363 193.375 2.1233 193.373 2.1093C193.453 1.94313 193.508 1.76632 193.538 1.5843C193.595 1.36534 193.564 1.13286 193.452 0.936373C193.34 0.739882 193.155 0.5949 192.938 0.532301C190.245 -0.0618323 187.451 -0.0276121 184.773 0.632304C184.598 0.677482 184.436 0.764657 184.302 0.886302C182.614 0.702812 180.911 0.700804 179.222 0.880305C179.126 0.900369 179.036 0.939372 178.955 0.995017C178.875 1.05066 178.807 1.12182 178.754 1.2043C178.702 1.28678 178.667 1.37891 178.65 1.47526C178.634 1.57161 178.638 1.67023 178.66 1.7653C177.152 4.4773 178.236 8.3043 178.536 11.2653C178.936 15.2213 177.699 18.9933 179.169 22.8003C180.107 25.2323 184.282 25.5823 186.387 26.3143C187.987 26.8733 190.228 26.6763 191.911 26.7923C193.139 26.8783 194.311 27.0743 195.485 27.2353C195.46 27.5243 195.428 27.8133 195.408 28.1063C195.388 28.3993 195.361 28.6823 195.339 28.9823C191.915 28.9023 188.452 29.8073 185.028 29.7823C183.815 29.7713 179.639 29.3003 179.103 31.1513C178.755 32.4673 178.575 33.8221 178.567 35.1833C178.52 35.2065 178.482 35.2437 178.457 35.2897C178.432 35.3357 178.422 35.3884 178.428 35.4403C178.484 35.9183 178.528 36.3963 178.573 36.8753C178.588 37.4163 178.613 37.9453 178.645 38.4543C178.584 40.1567 178.741 41.86 179.114 43.5223C179.155 43.9993 179.192 44.4763 179.238 44.9513C179.243 45.1335 179.317 45.3069 179.446 45.4356C179.575 45.5644 179.749 45.6388 179.931 45.6433C187.531 46.0583 195.367 46.2023 203.013 46.1653C203.293 46.1755 203.569 46.1056 203.81 45.9638C204.051 45.8221 204.247 45.6145 204.374 45.3653C204.515 45.2601 204.629 45.1216 204.704 44.9622C204.779 44.8028 204.813 44.6273 204.804 44.4513C204.654 32.0203 206.285 19.4313 204.837 7.0103ZM179.729 8.1573C179.443 8.55462 179.131 8.93307 178.796 9.29031C178.863 8.65331 178.818 8.4033 178.922 8.2703C179.129 8.0454 179.36 7.84416 179.611 7.6703C179.655 7.8353 179.785 8.0503 179.729 8.1573V8.1573ZM180.896 16.5313L180.658 16.3143C180.712 16.2653 180.767 16.1763 180.817 16.1773C180.867 16.1783 180.917 16.2773 180.969 16.3243L180.896 16.5313ZM181.306 5.5633C181.137 5.5493 180.833 5.1313 180.88 5.0283C181.061 4.72861 181.28 4.45421 181.533 4.2123C181.767 4.4783 182.004 4.7433 182.444 5.2423C182.083 5.40574 181.699 5.51395 181.306 5.5633ZM183.174 11.8633C183.104 11.7256 183.048 11.5812 183.007 11.4323C182.996 11.3803 183.107 11.3053 183.16 11.2503C183.237 11.3223 183.36 11.3963 183.353 11.4373C183.308 11.5843 183.248 11.7263 183.174 11.8613V11.8633ZM183.863 10.1543C183.787 10.1643 183.676 9.98531 183.598 9.88031C183.591 9.87031 183.719 9.7113 183.762 9.7223C183.925 9.7691 184.085 9.82965 184.238 9.9033C184.11 9.9933 183.995 10.1333 183.863 10.1503V10.1543ZM188.933 19.3083C188.875 19.2473 188.756 19.1643 188.768 19.1293C188.832 18.987 188.908 18.8504 188.996 18.7213C189.051 18.7863 189.106 18.8503 189.163 18.9143C189.085 19.0433 189.01 19.1743 188.933 19.3063V19.3083ZM194.543 18.1033C194.486 18.0953 194.443 18.0143 194.391 17.9653L194.745 18.0253C194.677 18.0503 194.605 18.1103 194.543 18.1013V18.1033ZM180.191 41.2283L180.291 41.0873L180.341 41.2523L180.191 41.2283ZM181.748 43.8913L181.739 43.9523L181.75 43.8943C181.698 44.3273 181.65 44.7643 181.597 45.1993L181.182 44.9773C181.367 44.6353 181.552 44.2923 181.739 43.9523C181.739 43.9293 181.739 43.9053 181.739 43.8823C181.697 43.8285 181.667 43.767 181.649 43.7013C181.649 43.6633 181.716 43.6153 181.755 43.5723C181.75 43.6723 181.745 43.7793 181.739 43.8823L181.748 43.8913ZM186.102 31.2793L186.079 31.4193L185.943 31.3253L186.102 31.2793ZM185.966 35.4553L186.081 35.2843L186.142 35.4843L185.966 35.4553ZM196.578 19.3553C196.484 19.3743 196.262 19.1933 196.258 19.0943C196.253 18.9653 196.408 18.8293 196.493 18.6943L196.879 19.0143C196.777 19.1443 196.694 19.3333 196.578 19.3563V19.3553ZM197.068 28.5553L196.931 28.4613L197.086 28.4083L197.068 28.5553ZM203.81 11.3143C203.537 11.2803 203.076 10.8713 203.11 10.7033C203.256 10.327 203.47 9.9806 203.741 9.6813C203.963 9.9373 204.187 10.1933 204.524 10.5813C204.234 10.8983 203.992 11.3403 203.81 11.3163V11.3143Z" fill="currentColor"/>
  <path d="M26.213 30.0923C27.104 26.0393 26.213 21.7703 26.049 17.6813C25.854 13.0063 25.318 7.72231 25.96 3.09131C26.0404 2.76713 25.9908 2.42434 25.8216 2.13633C25.6525 1.84831 25.3773 1.63796 25.055 1.55031C23.045 -0.23469 17.33 1.56131 15.333 1.43131C13.022 1.28131 6.355 0.40831 7.292 4.59131C7.292 4.61431 7.312 4.62831 7.318 4.64931C7.118 8.02031 7.218 11.4223 7.356 14.7973C7.17858 15.4156 7.08146 16.0542 7.06701 16.6973C7.0678 17.0755 7.21839 17.438 7.48584 17.7055C7.75328 17.9729 8.11578 18.1235 8.494 18.1243C10.267 18.0033 12.064 17.9243 13.849 17.7813C13.904 17.6933 13.958 17.6023 14.013 17.5123L14.413 17.7343C15.362 17.6503 16.307 17.5473 17.244 17.4063C17.2853 17.3954 17.3255 17.3807 17.364 17.3623C17.3758 17.3656 17.3878 17.3679 17.4 17.3693C17.858 18.4113 18.056 22.2473 18.149 26.3843C17.9002 28.2321 17.8396 30.1003 17.968 31.9603C17.7744 32.502 17.6114 33.0542 17.48 33.6143C16.841 36.0643 13.766 36.6563 13.151 33.5223C13.114 33.4993 13.077 33.4773 13.041 33.4533L13.141 33.5023C13.0915 33.2404 13.0598 32.9755 13.046 32.7093C12.909 30.0533 13.904 27.4843 13.717 24.7953C13.7123 24.5684 13.6358 24.3488 13.4985 24.1681C13.3613 23.9874 13.1703 23.8548 12.953 23.7893C12.1117 23.5412 11.285 23.2457 10.477 22.9043C10.3429 22.8429 10.1964 22.8131 10.0489 22.8173C9.90147 22.8214 9.75691 22.8593 9.6264 22.9281C9.49589 22.9968 9.38291 23.0947 9.29615 23.214C9.2094 23.3333 9.15119 23.471 9.126 23.6163C8.60218 23.4918 8.06908 23.4102 7.532 23.3723C7.203 23.3523 6.874 23.3523 6.547 23.3583C6.639 23.4063 6.733 23.4583 6.828 23.5013C6.641 23.6313 6.437 23.8843 6.272 23.8613C6.048 23.8303 5.855 23.5873 5.65 23.4333L5.73 23.3943C4.087 23.5103 2.468 23.8413 0.808002 23.9883C0.594284 23.9896 0.389675 24.075 0.238457 24.2261C0.0872388 24.3771 0.00157328 24.5816 0 24.7953C0.237 28.4223 0.255001 31.9783 0.228001 35.6123C0.0971023 37.2172 0.10212 38.8303 0.243 40.4343C-0.743 49.1183 15.072 45.5513 19.943 44.7833C27.144 43.6503 25.085 35.2193 26.213 30.0923ZM22.971 42.1213L23.042 42.3503L22.861 42.3263L22.971 42.1213ZM20.435 26.5573C20.846 26.8973 21.209 27.0653 21.202 27.2203C21.1368 27.5503 21.0168 27.867 20.847 28.1573C20.639 28.0193 20.285 27.9093 20.255 27.7393C20.2576 27.3387 20.3182 26.9406 20.435 26.5573ZM9.078 13.8713C8.73866 13.6257 8.44434 13.3232 8.208 12.9773C8.508 12.7903 8.819 12.4503 9.116 12.4593C9.384 12.4693 9.638 12.8593 10.032 13.1993C9.606 13.5113 9.212 13.9423 9.078 13.8713ZM9.995 4.57631C9.79365 4.47863 9.60904 4.3497 9.448 4.19431C9.401 4.13231 9.577 3.89431 9.648 3.73631L10.297 4.04831C10.165 4.28431 10.085 4.43131 9.995 4.57631V4.57631ZM10.757 8.55031L10.857 8.41331L10.898 8.57631L10.757 8.55031ZM13.705 4.97931L13.696 5.13331L13.541 5.04631L13.705 4.97931ZM13.285 6.55031C13.269 6.63531 13.255 6.72131 13.242 6.80831C13.164 6.81831 13.059 6.86231 13.015 6.82731C12.971 6.79231 12.958 6.67831 12.932 6.60031L13.285 6.55031ZM13.297 15.9903C13.232 16.0303 13.062 15.8953 12.94 15.8403C13.056 15.6403 13.173 15.4343 13.306 15.1973C13.467 15.3883 13.646 15.5253 13.624 15.5893C13.5613 15.7552 13.4457 15.8958 13.295 15.9893L13.297 15.9903ZM13.955 13.9063C13.831 13.8343 13.709 13.7593 13.586 13.6853C13.643 13.6243 13.727 13.5023 13.753 13.5123C13.8903 13.5808 14.0223 13.6593 14.148 13.7473L13.955 13.9063ZM15.197 16.3423L15.05 16.5033C15.082 16.4303 15.113 16.3553 15.144 16.2813C15.183 16.2313 15.226 16.1813 15.268 16.1333C15.3473 15.894 15.4273 15.6553 15.508 15.4173C15.58 15.4743 15.653 15.5293 15.724 15.5873C15.572 15.7703 15.419 15.9523 15.268 16.1333C15.241 16.2023 15.218 16.2713 15.195 16.3413L15.197 16.3423ZM7.738 41.3033C7.40467 41.7126 7.06966 42.122 6.733 42.5313C6.633 42.3933 6.427 42.1593 6.453 42.1313C6.784 41.7553 7.153 41.4043 7.506 41.0503C7.765 40.9923 8.024 40.9343 8.283 40.8743C8.102 41.0183 7.918 41.1613 7.738 41.3033ZM14.892 42.4883C14.837 42.4643 14.736 42.4393 14.736 42.4133C14.7441 42.3355 14.7647 42.2595 14.797 42.1883C14.854 42.2133 14.955 42.2393 14.956 42.2663C14.947 42.3433 14.9253 42.4183 14.892 42.4883V42.4883Z" fill="currentColor"/>
  <path d="M100.824 3.86629C100.782 3.76173 100.73 3.6613 100.669 3.56629C100.695 3.30497 100.641 3.042 100.515 2.81171C100.389 2.58141 100.196 2.39447 99.962 2.27529C99.0373 1.91495 98.0595 1.70953 97.068 1.66729C95.9747 1.4284 94.8443 1.41343 93.745 1.62329C93.6766 1.64536 93.6098 1.67209 93.545 1.70329C91.795 1.48829 89.933 1.81629 88.153 1.71029C86.8739 1.64291 85.5912 1.70657 84.325 1.90029C83.3291 2.1896 82.3817 2.62536 81.514 3.19329C81.2594 3.33946 81.0609 3.5663 80.9497 3.83796C80.8385 4.10962 80.821 4.41059 80.9 4.69329C81.3265 6.42859 81.4806 8.21964 81.357 10.0023C81.295 10.6796 81.213 11.3546 81.111 12.0273C80.5073 14.4109 80.1788 16.8559 80.132 19.3143C80.122 19.4693 80.106 19.6223 80.093 19.7743C79.728 18.7813 79.379 17.8103 79.102 16.8743C77.902 12.8203 76.402 8.86129 75.12 4.82329C75.1364 4.6543 75.131 4.48391 75.104 4.31629C74.9957 3.73651 74.9255 3.15026 74.894 2.56129C74.8816 2.08258 74.6861 1.62685 74.3476 1.28805C74.0092 0.949249 73.5537 0.753191 73.075 0.74029C70.1744 0.564859 67.2641 0.633435 64.375 0.945292C64.384 0.959292 64.396 0.971291 64.404 0.982291L64.204 1.09129L64.01 1.01329L64.053 0.97629C62.702 1.10329 61.361 1.25029 60.047 1.38829C59.9845 1.3429 59.9068 1.32338 59.8303 1.33382C59.7537 1.34425 59.6841 1.38382 59.636 1.44429C59.5067 1.46296 59.3828 1.50885 59.2726 1.57895C59.1623 1.64905 59.0682 1.74176 58.9965 1.85094C58.9247 1.96011 58.877 2.08328 58.8564 2.21228C58.8358 2.34129 58.8428 2.4732 58.877 2.59929C58.9418 2.9445 59.07 3.27472 59.255 3.57329C57.613 14.4073 58.947 26.1313 59.055 37.0013C59.076 39.2063 57.868 44.3163 59.655 46.0423C60.2026 46.5663 60.8612 46.9602 61.5819 47.1948C62.3026 47.4294 63.0669 47.4986 63.818 47.3973C64.2238 47.4175 64.6223 47.2847 64.935 47.0253C65.2755 46.8451 65.5828 46.6084 65.844 46.3253C66.0254 46.0982 66.114 45.8107 66.0919 45.5209C66.0699 45.231 65.9387 44.9603 65.725 44.7633C66.36 40.8973 65.872 36.7633 66.181 32.8733C66.4304 27.7562 66.2722 22.6273 65.708 17.5353C65.478 17.6243 65.25 17.7163 65.023 17.8053C64.964 17.6503 64.823 17.3813 64.857 17.3613C65.1156 17.2014 65.3827 17.0555 65.657 16.9243C65.648 16.8023 65.637 16.6793 65.628 16.5573C65.658 16.6693 65.691 16.7803 65.721 16.8923C65.787 17.0313 65.849 17.1713 65.967 17.4303L65.878 17.4653C66.572 19.9733 67.243 22.5013 68.031 24.9853C69.2073 28.846 70.1467 32.775 70.844 36.7503C71.268 39.0253 71.251 44.3703 72.944 46.0563L72.956 46.0693C73.156 45.8763 73.365 45.6873 73.569 45.4943C73.599 45.4313 73.631 45.3683 73.662 45.3053L73.671 45.3113L73.659 45.3043L73.668 45.1383L73.729 45.3443C73.676 45.3943 73.622 45.4443 73.569 45.4943C73.4357 45.755 73.305 46.0156 73.177 46.2763C75.29 48.1633 77.323 46.9673 79.625 46.2213C79.9173 46.1365 80.1745 45.96 80.3587 45.7178C80.5429 45.4756 80.6444 45.1806 80.648 44.8763C80.654 43.0703 82.401 40.1313 82.818 38.2923C83.367 35.8683 83.606 33.3633 84.041 30.9143C84.697 27.2143 85.162 23.4723 85.902 19.7923C85.816 22.8593 85.687 25.9243 85.41 28.9683C84.923 34.3293 83.982 40.0183 85.622 45.2583C85.7048 45.5611 85.885 45.8282 86.1348 46.0183C86.3846 46.2085 86.6901 46.3111 87.004 46.3103C90.926 45.8183 95.685 45.3103 99.57 45.8003C99.7552 45.8315 99.9453 45.7907 100.101 45.6862C100.257 45.5817 100.367 45.4214 100.409 45.2383C100.633 45.1593 100.819 44.9979 100.929 44.787C101.039 44.5761 101.064 44.3313 101 44.1023C100.583 42.8684 100.46 41.5541 100.641 40.2643C100.777 40.1474 100.888 40.0038 100.966 39.8425C101.045 39.6812 101.089 39.5055 101.097 39.3263C101.176 38.0096 101.155 36.6889 101.036 35.3753C101.036 29.9493 101.36 24.5223 101.186 19.0943C101.094 16.2733 100.777 13.5083 100.853 10.6763C100.91 8.38229 101.726 6.06529 100.824 3.86629ZM63.233 9.95029L62.833 10.2573C62.8762 10.1909 62.9254 10.1287 62.98 10.0713C63.0481 10.0184 63.1207 9.97159 63.197 9.93129C63.249 9.91429 63.303 9.90129 63.357 9.88529C63.315 9.91029 63.272 9.93129 63.233 9.95029ZM64.38 8.23329C64.29 8.36229 64.198 8.48929 64.108 8.61829C64.18 8.47429 64.252 8.32729 64.324 8.18129L64.561 7.76529L64.38 8.23329ZM65.126 4.45929L65.244 4.27629L65.324 4.47629L65.126 4.45929ZM66.955 20.1943C66.898 20.1943 66.847 20.0883 66.795 20.0293C66.857 19.9783 66.919 19.8833 66.976 19.8893C67.033 19.8953 67.083 19.9953 67.135 20.0553C67.074 20.1083 67.011 20.2023 66.955 20.1973V20.1943ZM68.35 25.9383C68.324 25.9383 68.307 25.8283 68.285 25.7713L68.668 25.8713C68.5659 25.9097 68.4588 25.9333 68.35 25.9413V25.9383ZM68.685 17.5023L68.604 17.3023L68.776 17.3093L68.685 17.5023ZM70.785 20.7773C70.7094 20.7692 70.6355 20.7492 70.566 20.7183C70.591 20.6643 70.614 20.5633 70.64 20.5633C70.7156 20.5721 70.7894 20.5924 70.859 20.6233C70.833 20.6783 70.81 20.7773 70.785 20.7773ZM70.926 36.3323L71.043 36.1723L71.108 36.3603L70.926 36.3323ZM71.579 23.6463L71.52 23.4803L71.677 23.5003L71.579 23.6463ZM72.493 36.4933C72.3309 36.4501 72.1737 36.3901 72.024 36.3143C72.124 36.2143 72.246 36.0283 72.324 36.0423C72.464 36.0693 72.58 36.2243 72.706 36.3253C72.633 36.3853 72.548 36.5063 72.492 36.4933H72.493ZM72.779 26.6503C72.701 26.5187 72.637 26.3792 72.588 26.2343C72.574 26.1883 72.695 26.1083 72.752 26.0443C72.828 26.1133 72.957 26.1813 72.952 26.2243C72.9069 26.3712 72.8486 26.5138 72.778 26.6503H72.779ZM73.464 7.61029C73.125 7.25029 72.805 6.87229 72.482 6.49829L72.354 6.42529L72.462 6.48329L72.471 6.49029L72.462 6.48129L73.82 7.31329C73.694 7.41429 73.469 7.61829 73.463 7.61029H73.464ZM76.776 14.2913C76.6146 14.1974 76.4683 14.0798 76.342 13.9423C76.289 13.8613 76.376 13.6843 76.401 13.5423C76.595 13.6323 76.836 13.6713 76.895 13.7933C76.954 13.9153 76.822 14.1213 76.775 14.2913H76.776ZM78.433 26.4913L78.544 26.3273L78.612 26.5143L78.433 26.4913ZM79.785 25.8813L79.585 25.8253C79.608 25.7503 79.631 25.6733 79.656 25.5963C79.715 25.6163 79.823 25.6293 79.83 25.6613C79.8283 25.7358 79.8131 25.8093 79.785 25.8783V25.8813ZM80.243 33.4813L80.197 33.3283L80.333 33.3493L80.243 33.4813ZM81.973 32.9363C81.919 32.8683 81.82 32.7983 81.826 32.7363C81.832 32.6743 81.942 32.6243 82.008 32.5693C82.063 32.6353 82.115 32.7023 82.169 32.7693L81.973 32.9363ZM82.473 16.7513C82.398 16.7363 82.341 16.6383 82.273 16.5773C82.355 16.5413 82.444 16.4713 82.521 16.4773C82.598 16.4833 82.637 16.5873 82.695 16.6493C82.62 16.6873 82.534 16.7643 82.47 16.7503L82.473 16.7513ZM83.802 8.94529L83.854 9.10429L83.701 9.07929L83.802 8.94529ZM83.736 16.1393C83.681 16.1333 83.636 16.0393 83.592 15.9763C83.652 15.9303 83.715 15.8453 83.768 15.8513C83.821 15.8573 83.868 15.9513 83.911 16.0133C83.849 16.0583 83.785 16.1443 83.733 16.1383L83.736 16.1393ZM85.592 10.2083C85.82 10.0783 86.045 9.94929 86.414 9.73629L87.278 10.7223C87.036 10.8303 86.714 11.0903 86.564 11.0133C86.2066 10.7848 85.8779 10.5142 85.585 10.2073L85.592 10.2083ZM85.817 23.3923L86.048 23.4673C86.039 23.5353 86.053 23.6373 86.016 23.6603C85.9391 23.6916 85.857 23.7079 85.774 23.7083C85.785 23.6013 85.8 23.4973 85.814 23.3913L85.817 23.3923ZM86.238 34.0923C86.064 33.3923 85.924 32.6843 85.779 31.9773C85.7613 31.9638 85.7442 31.9495 85.728 31.9343C85.7438 31.9383 85.7598 31.9413 85.776 31.9433L85.923 31.4883C86.094 31.6113 86.269 31.7323 86.442 31.8543C86.59 32.0723 86.857 32.2893 86.864 32.5113C86.8535 33.0453 86.7936 33.5773 86.685 34.1003C86.5361 34.1302 86.3825 34.1271 86.235 34.0913L86.238 34.0923ZM86.762 36.0413C86.762 36.0733 86.762 36.1053 86.762 36.1413C86.7476 36.1123 86.7309 36.0845 86.712 36.0583H86.707V36.0533L86.756 35.9933C86.839 35.9933 86.921 35.9933 87.005 35.9983C86.924 36.0063 86.842 36.0253 86.759 36.0403L86.762 36.0413ZM86.762 20.1723C86.64 20.1223 86.592 19.8873 86.511 19.7333C86.66 19.7003 86.848 19.5983 86.948 19.6533C87.096 19.7363 87.182 19.9303 87.295 20.0803C87.11 20.1193 86.903 20.2283 86.763 20.1713L86.762 20.1723ZM88.108 24.1503C87.9235 23.9398 87.7563 23.7147 87.608 23.4773C87.579 23.4223 87.772 23.2453 87.899 23.0773C88.1231 23.2516 88.3247 23.4532 88.499 23.6773C88.532 23.7393 88.247 23.9893 88.109 24.1503H88.108ZM88.534 21.3503L88.234 20.7443C88.398 20.6863 88.6 20.5443 88.715 20.5953C88.83 20.6463 88.883 20.8883 88.963 21.0473C88.818 21.1503 88.676 21.2503 88.535 21.3503H88.534ZM88.995 2.24329L88.851 2.14329L89.015 2.08829L88.995 2.24329ZM90.001 45.4623C89.631 45.3333 89.358 44.9153 89.044 44.6213C89.372 44.3273 89.761 43.7453 90.01 43.8013C90.422 43.8893 90.742 44.3933 91.395 44.9923C90.668 45.2553 90.267 45.5503 90.002 45.4623H90.001ZM91.801 28.3253C91.75 28.2693 91.66 28.2073 91.665 28.1553C91.67 28.1033 91.765 28.0553 91.824 28.0053C91.871 28.0623 91.924 28.1203 91.969 28.1773C91.916 28.2263 91.858 28.2753 91.803 28.3253H91.801ZM92.948 42.0253L93.067 41.7093C93.093 41.7923 93.121 41.8753 93.147 41.9593C93.085 41.9813 93.016 42.0043 92.95 42.0263L92.948 42.0253ZM94.378 25.6323L93.673 24.8393L94.027 24.6003C94.1877 24.9003 94.348 25.2003 94.508 25.5003L94.867 25.9903L94.378 25.6323ZM95.167 28.4913H94.917L95.173 28.4353C95.173 28.4043 95.181 28.3753 95.184 28.3433C95.1925 28.3712 95.2036 28.3983 95.217 28.4243H95.222L95.167 28.4913ZM97.199 41.5783L96.811 41.4663C96.879 41.4033 96.937 41.3163 97.017 41.2843C97.061 41.2673 97.141 41.3453 97.202 41.3843C97.201 41.4503 97.201 41.5133 97.201 41.5793L97.199 41.5783ZM97.364 36.9593C97.24 36.8743 97.003 36.7253 97.009 36.7163C97.242 36.3023 97.493 35.9013 97.744 35.4983L97.804 35.2693C97.887 35.2693 97.967 35.2633 98.048 35.2573L97.841 35.3343L97.741 35.4943L97.364 36.9593ZM98.937 43.9663C98.824 43.6663 98.71 43.3663 98.597 43.0663C98.556 43.0263 98.513 42.9883 98.473 42.9473C98.473 42.8783 98.473 42.8073 98.473 42.7383C98.3257 42.3303 98.179 41.922 98.033 41.5133C98.19 41.4713 98.344 41.4263 98.5 41.3823C98.4907 41.8336 98.4817 42.2856 98.473 42.7383C98.491 42.7893 98.51 42.8383 98.53 42.8933C98.551 42.9513 98.574 43.0083 98.596 43.0663C98.842 43.2973 99.087 43.5323 99.334 43.7663L98.937 43.9663ZM99.137 39.9873C99.072 40.0113 98.886 39.7063 98.756 39.5533C98.963 39.4003 99.17 39.2473 99.375 39.0923C99.462 39.2273 99.551 39.3623 99.687 39.5693C99.5276 39.7383 99.3414 39.8798 99.136 39.9883L99.137 39.9873ZM100.196 36.5403L100.162 36.4223L100.212 36.5703C100.225 36.6063 100.237 36.6423 100.251 36.6793C100.233 36.6363 100.213 36.5903 100.195 36.5413L100.196 36.5403Z" fill="currentColor"/>
  <path d="M56.085 37.1593C54.292 33.2713 55.491 27.8593 55.071 23.6853C54.7472 19.5392 54.6681 15.3777 54.834 11.2223C54.878 8.07131 54.91 4.47131 53.551 1.58931C53.472 1.39281 53.3506 1.21618 53.1954 1.07207C53.0402 0.927969 52.8551 0.819944 52.6533 0.755733C52.4515 0.691521 52.238 0.672712 52.0281 0.700645C51.8181 0.728578 51.617 0.802564 51.439 0.917312C48.231 -1.06569 45.678 0.74831 42.145 0.98431C38.313 1.23831 34.377 -0.464689 30.667 1.06531C30.4246 1.1359 30.2112 1.2824 30.0582 1.48328C29.9052 1.68416 29.8206 1.92883 29.817 2.18131C29.838 2.42631 29.852 2.60131 29.866 2.75031C29.2803 4.53759 28.9383 6.39565 28.849 8.27431C28.855 8.28731 28.861 8.29631 28.866 8.30731C28.8595 8.31104 28.8529 8.31438 28.846 8.31731C28.641 11.6283 28.952 15.0413 28.999 18.2343C29.099 24.9793 27.984 31.9853 27.531 38.7343C27.402 40.6163 25.878 46.1473 28.898 46.7543C32.838 47.5473 36.859 46.2733 40.81 45.8633C41.8029 45.9309 42.7996 45.9158 43.79 45.8183C43.9446 45.8935 44.1158 45.9284 44.2875 45.9197C44.4593 45.911 44.626 45.8591 44.7723 45.7687C44.9186 45.6783 45.0396 45.5524 45.1242 45.4027C45.2088 45.2529 45.2541 45.0843 45.256 44.9123C45.07 42.9073 44.926 40.9063 44.902 38.8923C44.886 37.5543 44.536 35.3043 46.456 35.2483C47.1627 35.2265 47.87 35.2418 48.575 35.2943C48.013 36.9643 48.464 38.9433 49.001 40.8743C48.9485 42.5467 49.265 44.2101 49.928 45.7463C49.834 46.8993 51.183 47.1393 51.863 46.5103C53.2385 46.0907 54.6699 45.883 56.108 45.8943C56.4058 45.8917 56.6908 45.7724 56.9017 45.5621C57.1126 45.3518 57.2326 45.0671 57.236 44.7693C57.185 42.4503 57.062 39.2803 56.085 37.1593ZM32.142 25.1173C32.2567 25.1791 32.3635 25.2547 32.46 25.3423C32.49 25.3743 32.433 25.5573 32.404 25.5603C32.2757 25.5605 32.1475 25.5498 32.021 25.5283C32.061 25.3903 32.101 25.2503 32.142 25.1173ZM29.964 44.2573C29.917 44.0523 29.703 43.6723 29.811 43.5163C30.611 42.3723 31.457 41.2493 32.37 40.1913C32.5619 40.1687 32.7565 40.1893 32.9395 40.2514C33.1225 40.3135 33.2894 40.4156 33.428 40.5503C33.785 41.4933 31.263 44.3433 29.964 44.2573ZM35.704 31.7023L35.719 31.5623L35.858 31.6503L35.704 31.7023ZM39.197 12.4023C39.12 12.2553 38.979 12.1083 38.985 11.9653C38.991 11.8223 39.148 11.6963 39.244 11.5533C39.324 11.7043 39.465 11.8533 39.459 11.9933C39.453 12.1333 39.29 12.2663 39.197 12.4033V12.4023ZM41.497 38.6743L41.33 38.5743L41.513 38.5023L41.497 38.6743ZM42.044 37.5003L41.99 37.3223L42.151 37.3503L42.044 37.5003ZM44.705 36.6003L44.617 36.6353L44.747 36.5533L44.705 36.6003ZM53.066 36.1623L53.129 36.3263L52.967 36.3063L53.066 36.1623ZM45.047 14.4673C45.007 14.2673 44.869 13.9923 44.947 13.8923C45.1347 13.7395 45.3509 13.6257 45.583 13.5573C45.615 13.7073 45.647 13.8573 45.69 14.0643L45.047 14.4673ZM48.612 28.5733V30.0063L47.701 30.9063H45.451V25.4063L45.607 22.9063L47.644 22.8153L48.444 23.2493L48.613 24.8663L48.612 28.5733ZM48.673 22.3143C48.573 22.1343 48.473 21.9553 48.379 21.7743C48.544 21.7163 48.716 21.5993 48.871 21.6213C48.962 21.6333 49.025 21.8603 49.103 21.9913C48.965 22.1043 48.821 22.2113 48.677 22.3163L48.673 22.3143ZM50.391 3.27931C50.0828 3.12096 49.7919 2.93094 49.523 2.71231C49.676 2.50131 49.832 2.29031 50.083 1.94531C50.3576 2.19335 50.602 2.47295 50.811 2.77831C50.856 2.85831 50.461 3.30831 50.395 3.28131L50.391 3.27931ZM52.04 44.8603C51.9586 44.7463 51.8895 44.6239 51.834 44.4953C51.82 44.4523 51.95 44.3043 51.984 44.3133C52.1382 44.3717 52.2871 44.4433 52.429 44.5273L52.04 44.8603ZM53.131 43.3853C52.4 43.3423 51.674 43.2273 50.731 43.1133C51.106 42.7793 51.4 42.3253 51.615 42.3593C52.2867 42.5158 52.9446 42.7268 53.582 42.9903C53.436 43.1313 53.277 43.3963 53.135 43.3873L53.131 43.3853Z" fill="currentColor"/>
</svg>
