<svg width="214" height="207" viewBox="0 0 214 207" fill="none"
  xmlns="http://www.w3.org/2000/svg">
  <path d="M53.7794 169.331C54.3364 167.971 52.9164 166.521 51.3794 166.5C46.8794 164.641 41.1314 166.088 36.3524 166.21C30.1324 166.368 26.3244 165.452 21.9784 161.909C21.8854 161.684 21.7934 161.464 21.7104 161.222C21.0934 159.313 20.7726 157.32 20.7594 155.314C21.0739 152.057 21.1828 148.784 21.0854 145.513C20.9114 141.502 21.0284 131.802 27.0434 131.314C28.8262 131.275 30.6068 131.461 32.3434 131.866C31.8874 137.996 31.3624 144.142 30.6434 150.24C30.6447 150.687 30.7631 151.127 30.9867 151.514C31.2104 151.902 31.5316 152.225 31.9184 152.45C38.1784 156.887 41.4724 154.095 48.6464 153.9C49.2291 153.882 49.7973 153.713 50.2954 153.41C50.6084 153.474 50.9313 153.472 51.2434 153.404C51.5555 153.336 51.85 153.204 52.1082 153.015C52.3663 152.827 52.5824 152.587 52.7428 152.311C52.9031 152.035 53.0041 151.728 53.0394 151.41C53.9334 145.91 53.6544 140.41 53.3984 134.871C54.0314 131.157 55.5724 126.772 54.5734 123.134C53.5874 119.557 49.5114 116.264 46.0634 113.2C44.8514 111.923 43.6134 110.664 42.3034 109.43C41.9745 109.094 41.5705 108.84 41.1245 108.689C40.6786 108.538 40.2032 108.495 39.7374 108.563C39.386 108.419 39.0153 108.328 38.6374 108.293C34.2053 108.051 29.7604 108.212 25.3574 108.774C21.8414 109.103 16.6484 109.114 13.5764 110.912C11.1674 112.323 8.95837 116.095 6.80437 118.107C4.7382 119.927 3.10128 122.184 2.01137 124.713C1.95687 124.866 1.93243 125.028 1.93938 125.19C1.74005 125.403 1.60429 125.668 1.54738 125.954C1.52038 126.103 1.48938 126.255 1.45638 126.402C1.37209 126.815 1.43025 127.244 1.62137 127.62C1.84937 129.431 2.00638 131.284 2.11238 133.168C2.91468 133.386 3.69791 133.668 4.45438 134.013C3.58138 135.174 2.87838 136.113 2.26038 136.932C2.40238 142.842 2.14038 148.918 1.91838 154.663C1.84631 154.782 1.78825 154.91 1.74538 155.042C0.123915 162.159 -0.372104 169.487 0.275377 176.758C0.433377 176.904 0.608376 177.064 0.792376 177.215C0.633376 177.307 0.483381 177.39 0.338381 177.477C0.423381 178.404 0.521369 179.333 0.638369 180.258C1.26637 185.169 1.32038 194.084 4.96738 197.958C9.64738 202.924 17.9674 205.117 24.5244 205.928C28.5871 206.442 32.6873 206.598 36.7774 206.393C37.6374 205.245 38.5644 204.141 39.4684 203.021C39.8344 203.779 40.1974 204.544 40.8364 205.892C44.5704 204.975 47.9554 202.884 51.7884 202.208C52.2035 202.134 52.5851 201.932 52.8797 201.631C53.1744 201.329 53.3673 200.943 53.4314 200.527C53.7899 200.222 54.0675 199.833 54.2395 199.394C54.4115 198.956 54.4726 198.482 54.4174 198.014C53.6554 188.434 55.8344 178.753 53.7794 169.331ZM51.7324 128.321C52.0076 128.448 52.269 128.604 52.5124 128.785C52.174 128.911 51.8244 129.005 51.4684 129.066C51.4064 129.072 51.3074 128.656 51.2274 128.434C51.3974 128.39 51.5964 128.269 51.7324 128.321V128.321ZM44.6984 126.036L44.8084 126.371L44.4994 126.33L44.6984 126.036ZM31.4504 117.636L31.2384 117.937L31.1254 117.59L31.4504 117.636ZM22.8614 122.261C22.9614 122.381 23.0614 122.505 23.1614 122.629L22.7974 122.928C22.6974 122.803 22.5164 122.677 22.5254 122.565C22.5344 122.453 22.7414 122.359 22.8614 122.26V122.261ZM3.24538 126.661C3.12638 126.528 2.90538 126.387 2.91338 126.261C2.92138 126.135 3.15138 126.02 3.28438 125.898C3.40338 126.035 3.52537 126.168 3.64537 126.298C3.51137 126.419 3.37738 126.542 3.24538 126.662V126.661ZM2.16338 170.322L1.84038 170.109L2.20638 169.981L2.16338 170.322ZM16.7634 138.175L16.7194 138.592L16.3424 138.342L16.7634 138.175ZM10.0924 118.939L12.9924 120.339C11.5752 121.149 10.1052 121.863 8.59238 122.476C8.14238 122.634 7.36238 121.837 6.73238 121.476C7.84538 120.642 8.95638 119.802 10.0964 118.943L10.0924 118.939ZM6.87837 185.117L6.57237 184.747C6.69937 184.647 6.83438 184.466 6.94838 184.48C7.06238 184.494 7.14837 184.699 7.24837 184.824C7.13137 184.922 7.00537 185.019 6.88237 185.118L6.87837 185.117ZM8.95638 172.843C8.60525 172.752 8.26315 172.629 7.93437 172.476C8.06437 172.329 8.22538 172.046 8.32738 172.063C8.69821 172.161 9.05935 172.293 9.40637 172.456C9.25037 172.604 9.08037 172.866 8.96037 172.843H8.95638ZM10.5004 187.473L10.3854 187.116L10.7064 187.158L10.5004 187.473ZM10.6004 138.413C10.3419 138.057 10.1436 137.661 10.0134 137.24C9.98437 137.014 10.3994 136.727 10.6134 136.464C10.7644 136.793 10.9134 137.126 11.0604 137.441C10.9054 137.779 10.7534 138.098 10.6054 138.414L10.6004 138.413ZM11.5814 159.307C11.9304 158.695 12.3762 158.144 12.9014 157.675L14.2644 160.175C13.7115 160.391 13.122 160.498 12.5284 160.49C12.1384 160.421 11.4874 159.56 11.5844 159.308L11.5814 159.307ZM14.2454 172.773C13.4664 172.665 12.6814 172.556 11.9104 172.437C11.8744 172.455 11.8394 172.471 11.8034 172.492C11.8034 172.492 11.8914 172.419 11.8774 172.434C11.8914 172.419 11.8034 172.493 11.8144 172.48C11.9774 171.48 12.1304 170.504 12.2824 169.518L12.4724 169.305L12.3244 169.506L12.2824 169.517L12.3244 169.506C12.1724 170.486 12.0154 171.463 11.8774 172.433H11.8984C12.7174 172.033 13.5264 171.633 14.3344 171.242C14.3054 171.753 14.2784 172.263 14.2484 172.774L14.2454 172.773ZM16.5904 195.835L16.6234 195.466L16.9854 195.685L16.5904 195.835ZM16.6524 148.524C16.5104 148.407 16.2394 148.265 16.2524 148.173C16.3362 147.827 16.4489 147.488 16.5894 147.161C16.7944 147.388 17.1444 147.6 17.1394 147.804C17.1404 148.049 16.8314 148.285 16.6554 148.525L16.6524 148.524ZM22.3834 198.456L19.7764 195.03C20.0574 194.823 20.3364 194.609 20.6174 194.397C21.4564 195.551 22.3014 196.697 23.1084 197.877C23.1234 197.901 22.6404 198.259 22.3864 198.458L22.3834 198.456ZM23.5274 174.383C23.1994 174.394 22.8644 174.059 22.5274 173.883C22.8454 173.689 23.1644 173.348 23.4884 173.339C23.8124 173.33 24.1544 173.648 24.4884 173.825C24.1744 174.022 23.8584 174.372 23.5304 174.384L23.5274 174.383ZM28.8544 191.006C28.7264 190.884 28.4794 190.736 28.4984 190.639C28.5812 190.309 28.694 189.986 28.8354 189.676C29.0274 189.896 29.3474 190.109 29.3354 190.303C29.3194 190.547 29.0304 190.773 28.8574 191.007L28.8544 191.006ZM31.3674 200.86C31.2212 200.57 31.1047 200.267 31.0194 199.954C30.9994 199.854 31.2504 199.704 31.3814 199.578C31.5336 199.881 31.6614 200.195 31.7634 200.518C31.7844 200.596 31.5054 200.743 31.3704 200.861L31.3674 200.86ZM43.5754 199.181C43.4384 199.181 43.3024 199.181 43.1674 199.181C42.5064 199.215 41.8404 199.252 41.1804 199.282L41.1964 199.262C41.2584 198.989 41.3064 198.734 41.3544 198.476C41.3244 198.708 41.2894 198.94 41.2544 199.177C41.2446 199.193 41.234 199.209 41.2224 199.224L41.2544 199.177C41.8914 199.177 42.5314 199.176 43.1644 199.183L43.5644 199.161C43.3384 198.179 43.1107 197.198 42.8814 196.219C42.0674 195.481 41.2524 194.748 40.4364 194.018L40.4944 193.963C40.4614 193.993 40.4364 194.018 40.4364 194.018C40.3884 193.898 40.3554 193.783 40.3054 193.669L39.9784 193.407C40.0784 193.453 40.2064 193.478 40.2524 193.549C40.2726 193.587 40.2903 193.628 40.3054 193.669L40.5724 193.885L43.0254 196.076L42.8814 196.22L43.0254 196.08C43.2134 197.112 43.4064 198.137 43.6004 199.162C43.6114 199.156 43.5714 199.183 43.5784 199.182L43.5754 199.181ZM46.4284 198.872L46.5494 198.764L46.4324 198.872C46.3994 198.812 46.3694 198.753 46.3324 198.693C46.249 198.667 46.1705 198.627 46.1004 198.575C46.0414 198.523 46.0924 198.347 46.0934 198.229C46.1764 198.385 46.2544 198.538 46.3324 198.693C46.4074 198.717 46.4794 198.738 46.5454 198.764C46.6454 198.804 46.7304 198.846 46.8274 198.886C46.6984 198.884 46.5664 198.878 46.4314 198.873L46.4284 198.872Z" fill="currentColor"/>
  <path d="M86.2384 110.913C81.1534 108.126 73.6194 109.291 67.5774 109.3C66.6301 109.06 65.6368 109.069 64.6944 109.328C64.3948 109.403 64.1139 109.539 63.869 109.727C63.6241 109.915 63.4203 110.152 63.2703 110.422C62.7703 110.428 62.2823 110.402 61.7863 110.438C61.402 110.464 61.032 110.594 60.7151 110.813C60.3983 111.032 60.1466 111.332 59.9864 111.683C59.3722 111.947 58.834 112.36 58.4208 112.886C58.0077 113.411 57.7328 114.032 57.6214 114.691C56.5654 119.268 58.8273 124.026 59.3213 128.547C59.3285 128.601 59.3385 128.653 59.3513 128.706C58.8413 131.417 60.9004 133.252 63.5224 132.857C67.8504 132.209 71.1123 133.598 75.3473 133.797C79.3906 133.952 83.4285 133.375 87.2674 132.097C87.9538 131.91 88.5593 131.501 88.9901 130.935C89.4209 130.369 89.653 129.676 89.6504 128.965C89.1424 124.738 89.0374 120.482 88.7024 116.243C88.5504 114.336 88.0964 111.932 86.2384 110.913ZM85.2563 117.213C84.8383 116.971 84.3664 116.695 83.8964 116.421C84.2124 116.208 84.5553 115.791 84.8423 115.83C85.3695 115.968 85.8745 116.181 86.3423 116.46C86.0333 116.679 85.7153 116.894 85.2563 117.212V117.213Z" fill="currentColor"/>
  <path d="M87.7534 144.457C88.1906 144.143 88.5373 143.72 88.7584 143.229C88.9911 142.801 89.0947 142.315 89.0567 141.83C89.0188 141.344 88.8408 140.88 88.5445 140.494C88.2481 140.107 87.846 139.815 87.387 139.653C86.928 139.491 86.4318 139.465 85.9584 139.579C84.9264 139.762 83.8977 139.955 82.8723 140.156C82.5125 140.227 82.1781 140.393 81.9034 140.636C78.7404 140.648 74.0414 140.175 72.1704 140.063C68.8963 139.796 65.6006 140.054 62.4084 140.829C62.2379 140.595 62.0134 140.405 61.7541 140.276C61.4947 140.148 61.2081 140.083 60.9185 140.089C60.629 140.095 60.345 140.17 60.0908 140.309C59.8366 140.447 59.6197 140.645 59.4584 140.886C57.5584 143.96 58.2903 147.486 58.7993 150.893C58.9412 151.797 59.1335 152.692 59.3754 153.575C59.1364 161.101 59.8404 163.738 60.0344 171.289C60.2444 179.356 59.3344 187.508 59.0344 195.566C58.4874 210.175 76.2624 202.99 85.2714 205.036C85.6766 205.136 86.099 205.144 86.5076 205.059C86.9162 204.974 87.3006 204.798 87.6324 204.545C87.9643 204.292 88.2352 203.968 88.4252 203.596C88.6152 203.225 88.7194 202.815 88.7303 202.398C89.2839 197.963 89.2446 193.474 88.6134 189.05C90.5364 172.655 89.6574 160.78 87.7534 144.457ZM59.9744 149.091C59.976 149.091 59.9774 149.092 59.9785 149.093C59.9795 149.095 59.9802 149.096 59.9803 149.098L59.9744 149.091C59.9854 149.098 59.8463 148.976 59.8463 148.976C59.6523 148.784 59.4534 148.591 59.2544 148.399L59.8544 148.973L60.1074 148.889C60.0575 148.952 60.013 149.02 59.9744 149.091V149.091Z" fill="currentColor"/>
  <path d="M151.745 123.071C151.985 119.208 152.318 115.371 151.492 111.437C151.414 111.097 151.256 110.78 151.033 110.512C150.809 110.244 150.525 110.032 150.205 109.894C149.884 109.755 149.535 109.694 149.187 109.716C148.838 109.737 148.5 109.84 148.198 110.016C147.641 109.6 146.975 109.352 146.28 109.304C138.83 108.719 131.06 108.404 123.539 108.169C118.039 107.999 112.539 108.958 107.039 109.819C106.56 109.755 106.081 109.694 105.595 109.637C102.039 109.218 98.7034 110.123 95.2714 110.737C94.0714 109.406 91.3294 109.354 90.8614 111.603C89.8694 116.336 91.8784 121.475 91.9234 126.253C91.9944 133.453 91.6014 140.292 93.3984 147.336C93.5163 147.748 93.7909 148.096 94.1632 148.307C94.5355 148.518 94.9758 148.575 95.3894 148.465C95.3996 148.462 95.4096 148.459 95.4194 148.455C95.6632 148.588 95.9339 148.665 96.2114 148.68C102.327 148.999 108.45 149.258 114.578 149.457C114.523 150.175 114.516 150.904 114.526 151.637C114.284 157.537 114.008 163.443 113.905 169.344C113.63 171.728 113.505 174.128 113.531 176.528C113.533 177.031 113.667 177.524 113.921 177.958C114.183 186.312 115.065 194.652 114.595 203.024C114.594 203.35 114.656 203.674 114.78 203.975C114.904 204.277 115.087 204.551 115.317 204.782C115.548 205.013 115.822 205.195 116.123 205.32C116.425 205.444 116.748 205.507 117.074 205.505C117.349 205.47 117.592 205.433 117.824 205.395C118.155 205.64 118.545 205.793 118.954 205.838C119.363 205.883 119.777 205.818 120.152 205.65C121.224 205.314 122.252 204.95 123.29 204.65C124.503 205.012 125.775 205.13 127.033 205C128.291 204.869 129.512 204.492 130.624 203.89C132.152 203.19 132.139 200.813 130.934 199.829C130.994 199.483 131.074 199.156 131.111 198.781C131.39 195.855 130.825 192.738 130.835 189.794C130.849 185.785 131.656 180.376 130.135 176.494C130.549 167.567 131.235 158.603 130.935 149.705C136.792 149.573 142.65 149.922 148.449 150.747C148.97 150.883 149.524 150.81 149.992 150.545C150.46 150.279 150.806 149.841 150.956 149.324C151.967 144.185 152.426 138.953 152.326 133.716C152.304 131.375 153.138 128.96 152.733 126.633C152.614 125.943 152.205 124.61 151.745 123.071ZM98.2344 147.243L98.0894 146.811L98.4894 146.864L98.2344 147.243ZM107.634 126.458C106.829 126.694 105.996 126.823 105.157 126.843L105.057 126.933C104.938 126.792 104.7 126.633 104.72 126.509C104.8 126.174 104.911 125.846 105.052 125.532V125.532L105.169 125.623L107.507 124.587C107.563 125.234 107.813 126.385 107.632 126.455L107.634 126.458ZM110.286 129.512C109.762 129.152 108.977 128.799 109.014 128.606C109.114 128.106 109.625 127.264 109.872 127.295C110.43 127.375 110.926 127.895 111.446 128.236C111.105 128.613 110.751 128.994 110.284 129.509L110.286 129.512ZM122.494 138.206L122.694 137.806L122.865 138.227L122.494 138.206ZM142.78 130.437C142.919 130.177 143.065 129.915 143.203 129.652C143.103 129.952 142.996 130.252 142.892 130.558L142.846 130.509C142.869 130.533 142.889 130.558 142.889 130.558C142.844 130.592 142.795 130.626 142.746 130.658C142.738 130.754 142.711 130.847 142.667 130.933C142.623 131.004 142.419 130.974 142.287 130.989C142.441 130.881 142.594 130.769 142.746 130.658C142.753 130.583 142.764 130.508 142.778 130.434L142.78 130.437ZM142.934 133.883C142.6 133.771 142.278 133.627 141.971 133.453C142.104 133.317 142.287 133.041 142.371 133.069C142.715 133.191 143.047 133.345 143.363 133.527C143.218 133.65 143.034 133.91 142.932 133.88L142.934 133.883ZM148.234 142.327C148.145 142.135 148.057 141.944 147.969 141.75L148.424 141.926C148.36 142.057 148.297 142.191 148.233 142.324L148.234 142.327ZM150.012 125.827C149.679 125.752 149.404 125.427 149.104 125.2L149.873 124.718C150.163 124.918 150.45 125.125 150.738 125.329C150.492 125.505 150.205 125.871 150.011 125.824L150.012 125.827Z" fill="currentColor"/>
  <path d="M211.034 122.504C211.352 118.686 211.419 114.851 211.234 111.025C211.228 110.454 210.998 109.907 210.594 109.503C210.19 109.099 209.645 108.869 209.073 108.862C208.405 108.893 207.732 108.94 207.068 108.984C206.784 108.845 206.47 108.777 206.153 108.784C203.418 108.836 200.753 108.5 198.016 108.741C197.711 108.764 197.417 108.868 197.165 109.043C196.914 109.218 196.713 109.457 196.585 109.736C196.457 110.014 196.406 110.321 196.437 110.626C196.467 110.931 196.579 111.222 196.76 111.47C195.678 115.113 196.212 119.264 196.46 123.094C196.413 122.973 196.606 122.763 196.688 122.594C196.949 122.729 197.212 122.863 197.474 123.001C197.303 123.301 197.135 123.589 196.966 123.885C196.768 123.643 196.598 123.379 196.46 123.098C196.496 123.632 196.524 124.161 196.542 124.681C196.76 130.751 196.197 136.807 196.193 142.873C196.198 142.883 196.201 142.895 196.202 142.906L196.456 142.932C196.456 142.932 196.243 143.004 196.241 143.012V143.022L196.191 142.968C196.191 143.163 196.186 143.355 196.186 143.546C195.047 143.523 193.886 143.427 192.801 143.37C191.354 143.266 189.916 143.051 188.501 142.727C186.663 139.096 187.351 133.434 187.365 129.965C187.52 124.066 187.367 118.163 186.907 112.28C186.907 112.248 186.887 112.227 186.881 112.194C187.049 111.845 187.167 111.475 187.232 111.094C187.352 110.633 187.287 110.143 187.052 109.729C186.817 109.315 186.43 109.01 185.973 108.876C180.302 107.626 174.419 107.698 168.779 109.085C168.409 109.179 168.068 109.362 167.784 109.619C164.228 109.232 160.641 109.227 157.084 109.601C156.883 109.645 156.693 109.729 156.524 109.847C156.355 109.965 156.212 110.115 156.102 110.289C155.992 110.463 155.917 110.657 155.883 110.86C155.849 111.063 155.855 111.271 155.902 111.472C152.723 117.181 155.011 125.238 155.64 131.472C156.483 139.81 153.879 147.747 156.971 155.765C158.951 160.887 167.742 161.621 172.171 163.164C175.553 164.341 180.264 163.924 183.805 164.173C186.393 164.352 188.863 164.766 191.332 165.101C191.278 165.713 191.212 166.321 191.168 166.941C191.125 167.53 191.068 168.149 191.025 168.783C183.816 168.615 176.525 170.52 169.311 170.459C166.756 170.436 157.963 169.444 156.832 173.343C156.101 176.115 155.722 178.968 155.705 181.835C155.605 181.883 155.523 181.96 155.469 182.057C155.415 182.154 155.393 182.266 155.405 182.376C155.525 183.376 155.613 184.389 155.711 185.398C155.746 186.535 155.796 187.651 155.865 188.721C156.074 192.154 155.729 196.065 156.853 199.396C156.936 200.396 157.017 201.402 157.115 202.403C157.125 202.786 157.281 203.152 157.553 203.423C157.824 203.695 158.19 203.851 158.573 203.86C174.573 204.736 191.079 205.037 207.18 204.96C207.768 204.983 208.349 204.837 208.856 204.54C209.363 204.244 209.775 203.808 210.042 203.285C210.342 203.063 210.582 202.772 210.741 202.435C210.9 202.099 210.974 201.729 210.955 201.357C210.647 175.175 214.094 148.662 211.034 122.504ZM158.161 124.918C157.558 125.755 156.902 126.552 156.197 127.305C156.34 125.962 156.242 125.438 156.46 125.156C156.897 124.684 157.384 124.261 157.911 123.894C158.005 124.242 158.287 124.702 158.161 124.918ZM160.617 142.554C160.453 142.406 160.285 142.254 160.117 142.097C160.229 141.997 160.346 141.806 160.453 141.81C160.56 141.814 160.667 142.011 160.771 142.121L160.617 142.554ZM161.482 119.454C161.131 119.423 160.487 118.545 160.582 118.33C160.963 117.697 161.426 117.119 161.959 116.609C162.454 117.169 162.953 117.729 163.877 118.778C163.118 119.124 162.311 119.353 161.482 119.456V119.454ZM165.415 132.718C165.268 132.428 165.151 132.123 165.066 131.809C165.042 131.7 165.282 131.54 165.388 131.426C165.552 131.579 165.815 131.731 165.795 131.819C165.697 132.13 165.569 132.432 165.415 132.721V132.718ZM166.867 129.118C166.703 129.139 166.474 128.762 166.31 128.541C166.294 128.521 166.563 128.189 166.654 128.21C166.998 128.308 167.332 128.434 167.654 128.588C167.388 128.789 167.145 129.082 166.867 129.121V129.118ZM177.544 148.397C177.42 148.268 177.168 148.097 177.195 148.021C177.33 147.72 177.491 147.432 177.677 147.16C177.793 147.298 177.91 147.43 178.027 147.559C177.867 147.842 177.705 148.123 177.544 148.4V148.397ZM189.357 145.858C189.24 145.844 189.144 145.67 189.041 145.568C189.286 145.609 189.536 145.651 189.782 145.694C189.64 145.761 189.487 145.879 189.357 145.861V145.858ZM159.135 194.558L159.349 194.258L159.457 194.607L159.135 194.558ZM162.414 200.163C162.414 200.172 162.393 200.295 162.393 200.295L162.417 200.173C162.309 201.087 162.202 202.002 162.094 202.919C161.804 202.763 161.51 202.604 161.219 202.45C161.613 201.731 162.004 201.013 162.393 200.295C162.393 200.244 162.401 200.195 162.401 200.143C162.312 200.032 162.247 199.903 162.21 199.766C162.202 199.683 162.353 199.584 162.433 199.495C162.421 199.71 162.412 199.928 162.401 200.143C162.405 200.155 162.412 200.164 162.414 200.169V200.163ZM171.579 173.606L171.532 173.901L171.246 173.701L171.579 173.606ZM171.293 182.406L171.534 182.044L171.664 182.456L171.293 182.406ZM193.642 148.506C193.442 148.544 192.978 148.163 192.968 147.954C192.96 147.682 193.287 147.399 193.468 147.118L194.281 147.793C194.06 148.057 193.885 148.456 193.642 148.505V148.506ZM194.672 167.88L194.386 167.685L194.712 167.569L194.672 167.88ZM208.872 131.574C208.302 131.502 207.33 130.639 207.4 130.286C207.708 129.493 208.158 128.764 208.728 128.134C209.196 128.676 209.668 129.214 210.375 130.034C209.763 130.694 209.254 131.622 208.871 131.573L208.872 131.574Z" fill="currentColor"/>
  <path d="M55.1884 63.3726C57.0654 54.8366 55.1994 45.8429 54.8444 37.2349C54.4354 27.3899 53.3014 16.2628 54.6554 6.51178C54.8237 5.8294 54.7185 5.10843 54.3624 4.5025C54.0063 3.89658 53.4274 3.45356 52.7494 3.26862C48.5164 -0.490384 36.4834 3.29159 32.2764 3.01959C27.4104 2.70359 13.3704 0.862843 15.3454 9.67584C15.361 9.71734 15.3794 9.75786 15.4004 9.79694C14.9834 16.8969 15.2004 24.06 15.4814 31.169C15.1053 32.4729 14.9002 33.82 14.8714 35.1768C14.8721 35.9736 15.189 36.7378 15.7523 37.3013C16.3157 37.8649 17.0795 38.1816 17.8764 38.1827C21.6084 37.9307 25.3934 37.765 29.1544 37.463C29.2664 37.276 29.3834 37.0861 29.4984 36.8961C29.7784 37.0501 30.0624 37.2049 30.3474 37.3629C32.3474 37.1839 34.3364 36.97 36.3084 36.671C36.3948 36.6488 36.4788 36.618 36.5594 36.5797C36.5846 36.5866 36.6103 36.5917 36.6364 36.5948C37.6014 38.7898 38.0174 46.8597 38.2134 55.5777C37.6889 59.4683 37.5605 63.4024 37.8304 67.3189C37.4263 68.4602 37.0845 69.6225 36.8064 70.8008C35.4604 75.9608 28.9824 77.2109 27.6854 70.6089C27.6124 70.5559 27.5354 70.509 27.4554 70.461C27.5324 70.497 27.6064 70.5306 27.6764 70.5606C27.5738 70.0085 27.507 69.4504 27.4764 68.8897C27.1884 63.2977 29.2824 57.8896 28.8924 52.2266C28.8821 51.7483 28.7208 51.2859 28.4314 50.9048C28.142 50.5238 27.7394 50.2442 27.2814 50.106C25.5087 49.5831 23.767 48.9605 22.0644 48.2418C21.7819 48.1126 21.4736 48.0503 21.1632 48.0591C20.8528 48.0679 20.5486 48.1476 20.2739 48.2925C19.9993 48.4374 19.7616 48.6433 19.5791 48.8946C19.3966 49.1458 19.2742 49.4358 19.2214 49.7418C18.1193 49.4809 16.998 49.31 15.8684 49.23C15.1684 49.189 14.4794 49.1867 13.7934 49.2007C13.9844 49.3007 14.1814 49.401 14.3804 49.501C13.9874 49.775 13.5584 50.3009 13.2114 50.2589C12.7404 50.1939 12.3364 49.6819 11.9004 49.3589C11.9564 49.3339 12.0154 49.305 12.0714 49.275C8.60837 49.52 5.20235 50.215 1.70335 50.524C1.25418 50.5294 0.824947 50.7103 0.507309 51.0279C0.18967 51.3455 0.00880523 51.7745 0.00335693 52.2237C0.503357 59.8607 0.543352 67.348 0.485352 75.001C0.458352 78.119 -0.0336426 81.8528 0.516357 85.1558C-1.56264 103.442 31.7414 95.931 42.0004 94.314C57.1474 91.928 52.8154 74.1666 55.1884 63.3726ZM48.3634 88.7007L48.5114 89.1827L48.1324 89.1319L48.3634 88.7007ZM43.0214 55.9239C43.8874 56.6409 44.6504 56.9958 44.6384 57.3238C44.4995 58.018 44.2464 58.6846 43.8894 59.296C43.4524 59.008 42.7054 58.7741 42.6434 58.4171C42.648 57.5721 42.7753 56.7322 43.0214 55.9239V55.9239ZM19.1054 29.2139C18.3919 28.696 17.7723 28.0599 17.2734 27.3331C17.9104 26.9331 18.5604 26.2238 19.1854 26.2398C19.7494 26.2598 20.2854 27.0869 21.1124 27.7969C20.2154 28.4559 19.3884 29.3599 19.1054 29.2139ZM21.0384 9.63971C20.6144 9.43286 20.2256 9.16088 19.8864 8.83307C19.7864 8.70607 20.1564 8.20371 20.3134 7.86871L21.6794 8.52692C21.3964 9.02192 21.2154 9.33164 21.0384 9.64264V9.63971ZM22.6384 18.0128L22.8494 17.7227L22.9364 18.066L22.6384 18.0128ZM28.8484 10.4898L28.8274 10.817L28.5014 10.6329L28.8484 10.4898ZM27.9574 13.7896C27.9234 13.9716 27.8964 14.151 27.8664 14.335C27.7024 14.352 27.4834 14.4456 27.3884 14.3736C27.2764 14.2836 27.2694 14.0606 27.2144 13.8926L27.9574 13.7896ZM27.9834 33.671C27.8464 33.753 27.4934 33.4706 27.2324 33.3516C27.4754 32.9256 27.7214 32.5001 28.0034 32.0001C28.3414 32.4001 28.7194 32.6868 28.6724 32.8238C28.5415 33.1744 28.3004 33.4731 27.9854 33.6749L27.9834 33.671ZM29.3684 29.2798C29.1104 29.1288 28.8514 28.972 28.5914 28.816C28.7124 28.687 28.8914 28.4277 28.9444 28.4517C29.2335 28.5952 29.5116 28.7602 29.7764 28.9449C29.6414 29.0629 29.5104 29.1738 29.3704 29.2838L29.3684 29.2798ZM31.9854 34.4107C31.8794 34.5237 31.7774 34.637 31.6744 34.751C31.7404 34.596 31.8064 34.4378 31.8744 34.2808C31.9604 34.1808 32.0444 34.0748 32.1354 33.9698C32.3034 33.4698 32.4724 32.963 32.6404 32.462C32.7934 32.581 32.9474 32.7009 33.0994 32.8209C32.7784 33.2039 32.4574 33.5888 32.1354 33.9698C32.0844 34.1218 32.0364 34.2676 31.9874 34.4146L31.9854 34.4107ZM16.2804 86.9727C15.5714 87.8367 14.8694 88.6986 14.1654 89.5606C13.9584 89.2686 13.5214 88.7788 13.5754 88.7198C14.2754 87.9258 15.0444 87.189 15.7924 86.442L17.4304 86.0738C17.0474 86.3788 16.6654 86.6796 16.2824 86.9766L16.2804 86.9727ZM31.3474 89.4727C31.2304 89.4237 31.0154 89.373 31.0154 89.314C31.0322 89.1496 31.0772 88.9891 31.1484 88.8399C31.2624 88.8939 31.4804 88.9459 31.4804 89.0049C31.462 89.1676 31.4178 89.326 31.3494 89.4747L31.3474 89.4727Z" fill="currentColor"/>
  <path d="M212.313 8.14272C212.224 7.92592 212.115 7.7174 211.988 7.51967C212.042 6.96957 211.928 6.41661 211.661 5.93227C211.395 5.44793 210.989 5.05486 210.496 4.80483C208.549 4.0412 206.487 3.60849 204.396 3.52407C202.017 3.24507 199.76 2.75797 197.404 3.42397C197.256 3.46778 197.112 3.52427 196.973 3.59291C193.288 3.14091 189.364 3.83005 185.62 3.60805C182.926 3.46599 180.224 3.59992 177.556 4.00795C175.22 4.34195 173.709 5.80814 171.634 6.72914C171.098 7.03774 170.679 7.51661 170.446 8.08998C170.212 8.66335 170.177 9.29794 170.345 9.89369C171.241 13.5494 171.566 17.3217 171.309 21.0768C171.176 22.5008 171.003 23.9217 170.789 25.339C169.246 30.108 169.098 35.7447 168.727 40.6837C168.702 41.0097 168.674 41.332 168.639 41.653C167.876 39.563 167.139 37.5181 166.556 35.5451C164.022 27.0061 160.862 18.6707 158.173 10.1637C158.208 9.80799 158.196 9.44942 158.137 9.09682C157.909 7.87456 157.762 6.63882 157.696 5.39711C157.67 4.38927 157.258 3.42974 156.545 2.71694C155.832 2.00413 154.872 1.59235 153.864 1.56606C147.758 1.19537 141.631 1.33921 135.548 1.99672C135.569 2.02472 135.589 2.04892 135.609 2.07192L135.179 2.30287L134.769 2.13784C134.802 2.11364 134.833 2.08681 134.861 2.05776C132.016 2.32776 129.189 2.63785 126.422 2.92885C126.358 2.88003 126.285 2.84437 126.207 2.82387C126.129 2.80337 126.048 2.79875 125.968 2.80971C125.888 2.82067 125.811 2.84709 125.741 2.88784C125.672 2.92858 125.611 2.98271 125.562 3.04702C125.29 3.08544 125.029 3.18156 124.796 3.32875C124.564 3.47595 124.365 3.67067 124.214 3.90053C124.062 4.1304 123.962 4.38997 123.918 4.66176C123.875 4.93355 123.89 5.21118 123.962 5.4767C124.098 6.20423 124.369 6.89999 124.762 7.527C121.306 30.342 124.113 55.027 124.333 77.921C124.38 82.565 121.838 93.3271 125.594 96.9591C126.749 98.0622 128.136 98.8917 129.654 99.3864C131.172 99.8811 132.782 100.028 134.364 99.817C135.219 99.8593 136.058 99.5782 136.715 99.0299C137.434 98.6512 138.082 98.1508 138.63 97.5509C139.012 97.0728 139.198 96.468 139.151 95.858C139.105 95.2481 138.828 94.6782 138.378 94.2638C139.719 86.1178 138.689 77.4198 139.34 69.2238C140.197 58.4348 139.201 47.678 138.34 36.924C137.857 37.115 137.377 37.3068 136.9 37.4918C136.775 37.1688 136.485 36.6017 136.546 36.5587C137.092 36.2201 137.657 35.9133 138.238 35.6398C138.219 35.3818 138.198 35.1218 138.177 34.8668C138.24 35.0978 138.307 35.338 138.377 35.567C138.515 35.867 138.649 36.1568 138.898 36.7008C138.831 36.7238 138.77 36.749 138.709 36.775C140.17 42.056 141.582 47.375 143.245 52.609C145.726 60.734 147.706 69.0029 149.176 77.3698C150.07 82.1628 150.035 93.4179 153.59 96.9699C153.596 96.9807 153.604 96.99 153.613 96.9977C154.046 96.5977 154.474 96.1897 154.903 95.7877C154.971 95.6567 155.037 95.5208 155.103 95.3878L155.123 95.3961C155.115 95.3928 155.107 95.3883 155.099 95.3829C155.092 95.3779 155.115 95.0358 155.115 95.0358L155.241 95.4669L154.904 95.7838L154.081 97.4298C158.529 101.405 162.809 98.8841 167.659 97.3141C168.274 97.1354 168.815 96.7638 169.204 96.2545C169.592 95.7453 169.806 95.1252 169.815 94.485C169.83 90.678 173.505 84.4849 174.385 80.6139C175.543 75.5139 176.044 70.2337 176.957 65.0797C178.341 57.2907 179.315 49.4058 180.876 41.6608C180.696 48.1188 180.425 54.5681 179.844 60.9811C178.817 72.2701 176.833 84.2528 180.287 95.2858C180.462 95.9234 180.841 96.486 181.367 96.8864C181.893 97.2867 182.536 97.5028 183.197 97.5011C191.459 96.4671 201.482 95.3949 209.659 96.4259C210.05 96.4921 210.451 96.4066 210.78 96.1867C211.109 95.9667 211.342 95.6288 211.43 95.2428C211.902 95.0759 212.293 94.7366 212.524 94.2931C212.755 93.8496 212.81 93.3348 212.676 92.8527C211.794 90.2545 211.534 87.4858 211.915 84.7687C212.203 84.5231 212.436 84.2213 212.602 83.8815C212.767 83.5417 212.86 83.1716 212.876 82.7941C213.045 80.0209 213.003 77.2386 212.749 74.4718C212.756 63.0468 213.431 51.6171 213.065 40.1901C212.874 34.2491 212.202 28.427 212.365 22.465C212.494 17.655 214.212 12.7727 212.313 8.14272ZM133.152 20.9601C132.868 21.1781 132.59 21.394 132.309 21.611C132.399 21.467 132.504 21.333 132.621 21.2111C132.764 21.1005 132.916 21.0025 133.075 20.9181C133.188 20.8841 133.295 20.854 133.412 20.818C133.323 20.871 133.235 20.9171 133.152 20.9601ZM135.571 17.3468C135.378 17.6188 135.185 17.8879 134.995 18.1559C135.144 17.8499 135.295 17.5459 135.45 17.2379C135.618 16.9439 135.783 16.652 135.95 16.362C135.823 16.689 135.694 17.0169 135.571 17.3429V17.3468ZM137.136 9.39907L137.384 9.01577L137.553 9.44008L137.136 9.39907ZM140.988 42.5348C140.87 42.5258 140.763 42.3151 140.651 42.1881C140.782 42.0811 140.913 41.8828 141.032 41.8878C141.151 41.8928 141.257 42.1119 141.367 42.2379C141.243 42.3429 141.105 42.5428 140.988 42.5348V42.5348ZM143.928 54.6349C143.871 54.6289 143.834 54.4019 143.791 54.2829C144.008 54.3359 144.224 54.3909 144.598 54.4889C144.382 54.5648 144.157 54.6126 143.928 54.631V54.6349ZM144.628 36.8639L144.46 36.4308L144.82 36.4469L144.628 36.8639ZM149.053 43.7638C148.894 43.7439 148.739 43.7001 148.592 43.6339C148.647 43.5209 148.692 43.3107 148.748 43.3097C148.907 43.3283 149.063 43.3705 149.209 43.4347C149.157 43.5427 149.105 43.7559 149.052 43.7599L149.053 43.7638ZM149.353 76.5177L149.597 76.1779L149.736 76.5719L149.353 76.5177ZM150.723 49.798L150.602 49.4508L150.932 49.4948L150.723 49.798ZM152.651 76.8551C152.309 76.7628 151.978 76.6358 151.661 76.4767C151.875 76.2707 152.13 75.8769 152.298 75.9049C152.591 75.9629 152.834 76.2887 153.098 76.4987C152.946 76.6227 152.772 76.8767 152.65 76.8507L152.651 76.8551ZM153.251 56.1271C153.09 55.8476 152.956 55.5529 152.851 55.2477C152.825 55.1477 153.078 54.9858 153.199 54.8478C153.357 54.9878 153.63 55.1377 153.609 55.2277C153.519 55.5371 153.399 55.8368 153.25 56.1227L153.251 56.1271ZM154.693 16.0329C153.981 15.2739 153.305 14.4762 152.626 13.6872L152.361 13.5309L152.585 13.6569L152.608 13.671L152.583 13.6491L155.445 15.403C155.182 15.617 154.705 16.0429 154.692 16.0289L154.693 16.0329ZM161.668 30.1027C161.329 29.9047 161.022 29.6557 160.759 29.3639C160.642 29.1939 160.827 28.8227 160.881 28.5167C161.291 28.7087 161.799 28.79 161.919 29.048C162.039 29.306 161.768 29.7428 161.667 30.0988L161.668 30.1027ZM165.159 55.7868L165.395 55.442L165.536 55.8341L165.159 55.7868ZM168.007 54.4987L167.586 54.3839C167.634 54.2239 167.679 54.063 167.731 53.901C167.858 53.946 168.083 53.9707 168.098 54.0377C168.096 54.1945 168.064 54.3494 168.005 54.4948L168.007 54.4987ZM168.968 70.507L168.875 70.1857L169.16 70.2301L168.968 70.507ZM172.616 69.36C172.502 69.217 172.289 69.0681 172.304 68.9411C172.319 68.8141 172.55 68.704 172.687 68.589C172.803 68.728 172.916 68.8689 173.028 69.0079L172.616 69.36ZM173.662 35.2789C173.503 35.2509 173.386 35.0427 173.25 34.9137C173.426 34.8387 173.609 34.691 173.774 34.714C173.906 34.732 174.018 34.9489 174.139 35.0739C173.977 35.1429 173.797 35.306 173.661 35.275L173.662 35.2789ZM176.462 18.8429L176.575 19.1769L176.251 19.1251L176.462 18.8429ZM176.325 33.9918C176.212 33.9778 176.125 33.7721 176.025 33.6491C176.15 33.5491 176.283 33.3699 176.398 33.3839C176.513 33.3979 176.598 33.6027 176.698 33.7257C176.566 33.8177 176.43 34.0019 176.321 33.9879L176.325 33.9918ZM180.234 21.5001C180.712 21.2271 181.192 20.956 181.967 20.508C182.605 21.234 183.194 21.9081 183.786 22.5851C183.274 22.8111 182.599 23.3569 182.281 23.1969C181.532 22.7141 180.843 22.1429 180.23 21.4957L180.234 21.5001ZM180.708 49.2648L181.192 49.421C181.176 49.562 181.204 49.7778 181.129 49.8288C180.966 49.8917 180.793 49.9257 180.617 49.9289C180.646 49.7049 180.673 49.4829 180.705 49.2609L180.708 49.2648ZM181.595 71.797C181.229 70.32 180.934 68.8299 180.626 67.3419C180.595 67.3119 180.558 67.2891 180.526 67.2521C180.558 67.2601 180.591 67.2651 180.626 67.2711C180.726 66.9521 180.834 66.6331 180.933 66.3131C181.3 66.5691 181.662 66.8271 182.033 67.0831C182.346 67.5431 182.908 67.9969 182.923 68.4669C182.9 69.5923 182.775 70.7134 182.548 71.8161C182.231 71.8773 181.905 71.8695 181.591 71.7931L181.595 71.797ZM182.695 75.8971C182.695 75.9631 182.695 76.0298 182.695 76.0968C182.668 76.0352 182.634 75.9765 182.595 75.921H182.585V75.9118C182.59 75.9089 182.593 75.905 182.595 75.9L182.7 75.7789C182.875 75.7789 183.049 75.7789 183.226 75.7789C183.042 75.8229 182.868 75.8631 182.693 75.8981L182.695 75.8971ZM182.707 42.4791C182.446 42.3721 182.347 41.8789 182.175 41.5519C182.492 41.4839 182.886 41.2699 183.099 41.3869C183.409 41.5569 183.588 41.9688 183.829 42.2868C183.433 42.3668 182.999 42.5991 182.705 42.4801L182.707 42.4791ZM185.544 50.8527C185.153 50.4115 184.801 49.9375 184.491 49.4357C184.426 49.3177 184.835 48.9488 185.1 48.5988C185.57 48.97 185.992 49.3978 186.356 49.8727C186.426 49.9907 185.829 50.5151 185.542 50.8541L185.544 50.8527ZM186.436 44.963C186.222 44.535 186.014 44.1107 185.802 43.6847C186.147 43.5627 186.569 43.2608 186.813 43.3688C187.075 43.4858 187.166 43.9889 187.333 44.3229C187.031 44.5369 186.731 44.75 186.434 44.964L186.436 44.963ZM187.408 4.7228L187.108 4.52309L187.451 4.40688L187.408 4.7228ZM189.524 95.736C188.747 95.466 188.17 94.5869 187.512 93.9669C188.199 93.3469 189.019 92.12 189.545 92.235C190.413 92.427 191.087 93.4867 192.462 94.7477C190.926 95.3047 190.083 95.929 189.522 95.737L189.524 95.736ZM193.315 59.6491C193.215 59.5261 193.022 59.4008 193.034 59.2868C193.046 59.1728 193.244 59.0798 193.366 58.9738C193.466 59.0928 193.566 59.2171 193.674 59.3341C193.553 59.4431 193.432 59.543 193.313 59.65L193.315 59.6491ZM195.731 88.5011L195.985 87.8351C196.04 88.0091 196.097 88.186 196.15 88.361L195.731 88.5011ZM198.746 53.9777C198.252 53.4197 197.758 52.8628 197.262 52.3068C197.508 52.1378 197.762 51.9728 198.004 51.8068C198.342 52.4418 198.682 53.0737 199.019 53.7067C199.274 54.0517 199.519 54.3979 199.776 54.7409C199.428 54.4849 199.087 54.2301 198.744 53.9791L198.746 53.9777ZM200.405 60.0031H199.88C200.062 59.9621 200.24 59.919 200.42 59.88C200.426 59.818 200.432 59.7561 200.441 59.6911C200.461 59.7497 200.486 59.8062 200.516 59.86H200.523L200.405 60.0031ZM204.683 87.5597C204.415 87.4807 204.141 87.4008 203.869 87.3248C203.99 87.1713 204.137 87.0406 204.303 86.9381C204.395 86.9061 204.564 87.0677 204.692 87.1437C204.681 87.2827 204.681 87.4217 204.681 87.5607L204.683 87.5597ZM205.034 77.8317C204.772 77.6527 204.272 77.341 204.285 77.32C204.777 76.452 205.305 75.603 205.83 74.757L205.956 74.2741L205.963 74.2829C206.138 74.2829 206.303 74.268 206.476 74.255C206.33 74.31 206.187 74.3641 206.041 74.4171C205.968 74.5301 205.902 74.642 205.83 74.757L205.034 77.8317ZM208.345 92.5871C208.106 91.9591 207.867 91.3269 207.63 90.6979C207.543 90.6139 207.452 90.5338 207.367 90.4498C207.367 90.3048 207.372 90.1559 207.373 90.0099C207.064 89.1499 206.755 88.2901 206.447 87.4308C206.778 87.3398 207.105 87.246 207.434 87.151C207.414 88.1063 207.394 89.0592 207.373 90.0099C207.414 90.1169 207.452 90.2261 207.493 90.3341C207.539 90.4571 207.582 90.5769 207.63 90.6969C208.146 91.1862 208.664 91.6754 209.184 92.1647C208.905 92.3097 208.624 92.45 208.343 92.588L208.345 92.5871ZM208.761 84.2111C208.623 84.2581 208.233 83.6201 207.961 83.2941L209.261 82.3268C209.448 82.6118 209.636 82.8928 209.922 83.3268C209.586 83.6837 209.193 83.9829 208.759 84.2121L208.761 84.2111ZM210.99 76.9518L210.92 76.7038L211.02 77.0138C211.05 77.0878 211.074 77.1677 211.102 77.2477C211.068 77.1517 211.027 77.0528 210.988 76.9528L210.99 76.9518Z" fill="currentColor"/>
  <path d="M118.095 78.2537C114.32 70.0657 116.843 58.6766 115.961 49.8806C115.061 40.9096 115.329 32.5925 115.461 23.6365C115.555 16.9995 115.62 9.41437 112.761 3.34937C112.596 2.93499 112.34 2.56259 112.014 2.25855C111.687 1.95451 111.297 1.72661 110.872 1.59107C110.447 1.45552 109.997 1.41549 109.555 1.47437C109.112 1.53324 108.688 1.68936 108.313 1.9314C101.555 -2.2456 96.1814 1.57844 88.7414 2.07544C80.6684 2.61244 72.3834 -0.97766 64.5704 2.24634C64.0593 2.39436 63.6093 2.70265 63.2867 3.12573C62.9641 3.54882 62.7859 4.06443 62.7784 4.59644C62.8254 5.11144 62.8534 5.47863 62.8784 5.79663C61.644 9.56085 60.9238 13.4743 60.7374 17.4314C60.7494 17.4534 60.7624 17.4754 60.7724 17.4954C60.7586 17.504 60.7442 17.5116 60.7294 17.5183C60.2974 24.4913 60.9534 31.6796 61.0514 38.4026C61.2674 52.6026 58.9134 67.3603 57.9604 81.5603C57.6924 85.5283 54.4814 97.1747 60.8394 98.4607C69.1394 100.127 77.6074 97.4463 85.9254 96.5803C88.016 96.7229 90.1149 96.6921 92.2004 96.4875C92.5262 96.6458 92.8868 96.7193 93.2486 96.7009C93.6104 96.6826 93.9616 96.573 94.2698 96.3826C94.5779 96.1921 94.833 95.9269 95.0112 95.6116C95.1895 95.2962 95.2852 94.9406 95.2894 94.5784C94.8994 90.3544 94.5893 86.1427 94.5403 81.8997C94.5093 79.0807 93.7694 74.3423 97.8144 74.2273C99.3037 74.1807 100.795 74.2142 102.28 74.3274C101.093 77.8464 102.044 82.0114 103.174 86.0754C103.066 89.5976 103.732 93.1008 105.124 96.3376V96.3464C104.93 98.7804 107.773 99.2818 109.201 97.9578C112.099 97.0753 115.114 96.6367 118.143 96.6575C118.771 96.652 119.371 96.4007 119.814 95.9573C120.258 95.5138 120.51 94.9136 120.515 94.2864C120.405 89.3894 120.155 82.7177 118.095 78.2537ZM67.6774 52.8904C67.9175 53.0243 68.1419 53.1846 68.3463 53.3684C68.4073 53.4354 68.2864 53.8165 68.2274 53.8245C67.9592 53.826 67.6914 53.8033 67.4274 53.7566C67.5054 53.4666 67.5894 53.1804 67.6774 52.8904ZM63.0894 93.1995C62.9894 92.7685 62.5374 91.9635 62.7684 91.6365C64.4604 89.2285 66.2354 86.8655 68.1554 84.6365C68.5595 84.5872 68.9695 84.6294 69.3553 84.7595C69.741 84.8897 70.0927 85.1044 70.3844 85.3884C71.1364 87.3804 65.8244 93.3855 63.0894 93.1995ZM75.1764 66.7605L75.2094 66.4666L75.5094 66.6497L75.1764 66.7605ZM82.5334 26.1194C82.3724 25.8114 82.0764 25.4984 82.0844 25.2004C82.0924 24.9024 82.4294 24.6357 82.6334 24.3357C82.7974 24.6517 83.0984 24.9675 83.0834 25.2605C83.0684 25.5535 82.7304 25.8334 82.5334 26.1194ZM87.3844 81.4456L87.0334 81.2253L87.4214 81.0774L87.3844 81.4456ZM88.5354 78.9705L88.4234 78.6003L88.7603 78.6545L88.5354 78.9705ZM94.1353 77.0774L93.9494 77.1526L94.2254 76.9788C94.2244 76.9828 94.1394 77.0774 94.1394 77.0774H94.1353ZM111.749 76.1536L111.878 76.5017L111.536 76.4626L111.749 76.1536ZM94.8544 30.4705C94.7724 30.0575 94.4844 29.4705 94.6544 29.2615C94.9544 28.9005 95.5314 28.7785 95.9924 28.5535C96.0594 28.8705 96.1254 29.1894 96.2204 29.6204C95.7894 29.8934 95.3234 30.1815 94.8584 30.4705H94.8544ZM102.366 60.1707V63.1887L100.446 65.0745H95.7074V53.4905L96.0364 48.2244L100.327 48.0305L102.01 48.9465L102.366 52.3538V60.1707ZM102.494 46.9934C102.287 46.6144 102.079 46.2338 101.875 45.8538C102.222 45.7318 102.584 45.4885 102.907 45.5305C103.101 45.5575 103.237 46.0307 103.398 46.3127C103.105 46.5487 102.8 46.7713 102.498 46.9963L102.494 46.9934ZM106.113 6.90845C105.463 6.5757 104.85 6.17565 104.283 5.7146C104.607 5.2686 104.931 4.82339 105.462 4.09839C106.04 4.62248 106.554 5.2121 106.995 5.85474C107.086 6.02074 106.254 6.96938 106.117 6.91138L106.113 6.90845ZM109.586 94.4695C109.412 94.2322 109.265 93.9754 109.149 93.7043C109.117 93.6133 109.393 93.2986 109.463 93.3196C109.79 93.4416 110.106 93.593 110.405 93.7717C110.115 94.0237 109.852 94.2484 109.59 94.4724L109.586 94.4695ZM111.88 91.3635C110.343 91.2745 108.816 91.0328 106.831 90.7908C107.624 90.0908 108.246 89.1313 108.695 89.2053C110.11 89.5344 111.496 89.978 112.838 90.5315C112.522 90.8295 112.185 91.3865 111.884 91.3665L111.88 91.3635Z" fill="currentColor"/>
</svg>
