<svg width="20" height="20" viewBox="0 0 20 20" fill="none"
  xmlns="http://www.w3.org/2000/svg">
  <path fill-rule="evenodd" clip-rule="evenodd" d="M7.32809 10L0.553371 3.22528C-0.184456 2.48745 -0.184456 1.2912 0.553371 0.553371C1.2912 -0.184456 2.48745 -0.184458 3.22528 0.55337L10 7.32809L16.7747 0.553372C17.5125 -0.184456 18.7088 -0.184456 19.4466 0.553372C20.1845 1.2912 20.1845 2.48745 19.4466 3.22528L12.6719 10L19.4466 16.7747C20.1845 17.5125 20.1845 18.7088 19.4466 19.4466C18.7088 20.1845 17.5125 20.1845 16.7747 19.4466L10 12.6719L3.22528 19.4466C2.48745 20.1845 1.2912 20.1845 0.553372 19.4466C-0.184456 18.7088 -0.184458 17.5125 0.55337 16.7747L7.32809 10Z" fill="currentColor"/>
</svg>
