<svg width="39" height="38" viewBox="0 0 39 38" fill="none"
  xmlns="http://www.w3.org/2000/svg">
  <path d="M31.806 11.784C31.3332 12.3579 30.8249 12.9016 30.2841 13.412C30.0573 13.6017 29.877 13.8406 29.7567 14.1106C29.6364 14.3807 29.5794 14.6746 29.5901 14.97C29.3221 20.077 27.2091 24.202 22.7251 26.759C20.7424 27.9343 18.4799 28.5545 16.175 28.5545C13.8702 28.5545 11.6077 27.9343 9.625 26.759C9.462 26.672 9.31401 26.559 8.93201 26.306C11.3673 26.5178 13.7931 25.8036 15.7251 24.306C14.7713 24.2209 13.8624 23.862 13.1079 23.2724C12.3534 22.6829 11.7853 21.8878 11.472 20.983L13.146 20.906C12.1724 20.5223 11.3308 19.8648 10.7228 19.013C10.1148 18.1611 9.76657 17.1515 9.72009 16.106L11.5591 16.575C10.6802 15.7645 10.091 14.6882 9.88208 13.511C9.67312 12.3338 9.85583 11.1205 10.4021 10.057C11.5637 11.5384 13.0258 12.757 14.6924 13.6324C16.359 14.5078 18.1921 15.0203 20.071 15.136C20.0868 14.383 20.1536 13.632 20.271 12.888C20.4288 12.1233 20.7768 11.4108 21.283 10.8163C21.7891 10.2218 22.437 9.76453 23.1667 9.4868C23.8965 9.20908 24.6844 9.11985 25.4578 9.22738C26.2311 9.33491 26.9648 9.63573 27.5911 10.102C27.8626 10.3485 28.2035 10.5051 28.5674 10.5506C28.9312 10.5961 29.3002 10.5281 29.624 10.356C30.141 10.134 30.662 9.922 31.181 9.706L31.3401 9.872L29.583 12.223L31.67 11.659L31.806 11.784Z" fill="currentColor"/>
  <path d="M19.4991 37.706C15.7704 37.7058 12.1255 36.6 9.0253 34.5283C5.92509 32.4566 3.50876 29.5122 2.08194 26.0673C0.655126 22.6224 0.281952 18.8318 1.00943 15.1747C1.73691 11.5177 3.5324 8.1585 6.16898 5.52192C8.80556 2.88534 12.1648 1.08979 15.8218 0.362313C19.4788 -0.365166 23.2695 0.00809932 26.7144 1.43491C30.1593 2.86173 33.1037 5.27801 35.1753 8.37822C37.247 11.4784 38.3529 15.1233 38.3531 18.852C38.3472 23.8506 36.359 28.6428 32.8245 32.1774C29.2899 35.7119 24.4977 37.7002 19.4991 37.706ZM19.4991 1.38801C16.045 1.38821 12.6687 2.41262 9.79691 4.33171C6.9251 6.2508 4.6868 8.97837 3.36514 12.1695C2.04349 15.3607 1.69777 18.8721 2.37174 22.2597C3.0457 25.6473 4.7091 28.759 7.15152 31.2013C9.59395 33.6436 12.7058 35.3067 16.0934 35.9805C19.4811 36.6543 22.9924 36.3084 26.1835 34.9865C29.3746 33.6647 32.102 31.4263 34.0209 28.5544C35.9398 25.6825 36.9641 22.306 36.9641 18.852C36.9588 14.2217 35.117 9.7826 31.8428 6.50859C28.5686 3.23457 24.1293 1.39304 19.4991 1.38801V1.38801Z" fill="currentColor"/>
</svg>
