<svg width="39" height="38" viewBox="0 0 39 38" fill="none"
  xmlns="http://www.w3.org/2000/svg">
  <path d="M7.12708 17.063C7.16946 16.2096 7.25763 15.359 7.39111 14.515C7.59551 13.5565 7.87294 12.6151 8.22107 11.699C8.38627 11.2391 8.69703 10.8457 9.1062 10.5786C9.51537 10.3115 10.0006 10.1852 10.488 10.219C15.233 10.155 19.978 10.083 24.724 10.054C26.175 10.045 27.6241 10.187 29.0801 10.22C29.5782 10.1963 30.0709 10.3324 30.4861 10.6086C30.9013 10.8848 31.2174 11.2864 31.3881 11.755C31.7845 12.7242 32.0554 13.7401 32.1941 14.778C32.6342 18.0176 32.5348 21.3078 31.9 24.515C31.7651 25.0751 31.5528 25.6136 31.269 26.115C31.0677 26.4947 30.7668 26.8123 30.3986 27.034C30.0304 27.2556 29.6088 27.3728 29.1791 27.373C22.9881 27.7258 16.7824 27.7382 10.5901 27.41C10.0396 27.4343 9.49604 27.2789 9.04163 26.9672C8.58721 26.6555 8.24652 26.2044 8.07104 25.682C7.72861 24.4922 7.45715 23.283 7.25806 22.061C7.19706 21.773 7.17008 21.477 7.12708 21.185V17.063ZM17.28 23.427L24.462 18.817L17.28 14.18V23.427Z" fill="currentColor"/>
  <path d="M19.791 37.706C16.0623 37.706 12.4174 36.6003 9.31703 34.5288C6.21669 32.4572 3.80027 29.5128 2.3733 26.068C0.946334 22.6231 0.572939 18.8324 1.3003 15.1753C2.02767 11.5182 3.82307 8.15896 6.45961 5.52228C9.09615 2.8856 12.4554 1.08995 16.1124 0.362386C19.7695 -0.365174 23.5602 0.00803387 27.0051 1.43482C30.4501 2.86161 33.3946 5.27789 35.4663 8.37811C37.538 11.4783 38.6439 15.1233 38.6441 18.852C38.6382 23.8504 36.6501 28.6425 33.1157 32.177C29.5814 35.7115 24.7895 37.6999 19.791 37.706V37.706ZM19.791 1.38801C16.337 1.38821 12.9607 2.41262 10.0889 4.33171C7.21707 6.2508 4.97877 8.97837 3.65712 12.1695C2.33546 15.3607 1.98974 18.8721 2.66371 22.2597C3.33767 25.6473 5.00107 28.759 7.44349 31.2013C9.88592 33.6436 12.9977 35.3067 16.3854 35.9805C19.773 36.6543 23.2844 36.3084 26.4755 34.9865C29.6665 33.6647 32.394 31.4263 34.3129 28.5544C36.2318 25.6825 37.2561 22.306 37.2561 18.852C37.2508 14.2217 35.409 9.7826 32.1348 6.50859C28.8606 3.23457 24.4213 1.39304 19.791 1.38801Z" fill="currentColor"/>
</svg>
